<svg width="1200" height="1000" viewBox="0 0 1200 1000" fill="none" xmlns="http://www.w3.org/2000/svg">

  <!-- Background -->
  <rect width="1200" height="1000" rx="16" fill="#1E1E1E"/>

  <!-- Top Bar -->
  <rect width="1200" height="42" rx="16" fill="#323232"/>

  <!-- Fix top radius -->
  <rect y="20" width="1200" height="22" fill="#323232"/>

  <!-- MacOS Buttons -->
  <circle cx="24" cy="21" r="6" fill="#FF5F57"/>
  <circle cx="44" cy="21" r="6" fill="#FEBC2E"/>
  <circle cx="64" cy="21" r="6" fill="#28C840"/>

  <!-- Window Title -->
  <text
    x="600"
    y="27"
    fill="#BDBDBD"
    text-anchor="middle"
    font-size="14"
    font-family="SF Mono, Menlo, Monaco, Consolas, monospace">
    moab@mac
  </text>

  <!-- whoami -->

  <text
    x="40"
    y="90"
    font-size="22"
    font-family="SF Mono, Menlo, Monaco, Consolas, monospace">
    <tspan fill="#4ADE80">moab@developer</tspan>
    <tspan fill="#60A5FA"> ~ </tspan>
    <tspan fill="#E5E5E5">% whoami</tspan>
  </text>

  <text
    x="40"
    y="125"
    fill="#E5E5E5"
    font-size="22"
    font-family="SF Mono, Menlo, Monaco, Consolas, monospace">
    Moab Alves
  </text>

  <!-- role -->

  <text
    x="40"
    y="180"
    font-size="22"
    font-family="SF Mono, Menlo, Monaco, Consolas, monospace">
    <tspan fill="#4ADE80">moab@developer</tspan>
    <tspan fill="#60A5FA"> ~ </tspan>
    <tspan fill="#E5E5E5">% cat role.txt</tspan>
  </text>

  <text
    x="40"
    y="215"
    fill="#E5E5E5"
    font-size="22"
    font-family="SF Mono, Menlo, Monaco, Consolas, monospace">
    Full Stack Developer
  </text>

  <!-- focus -->

  <text
    x="40"
    y="270"
    font-size="22"
    font-family="SF Mono, Menlo, Monaco, Consolas, monospace">
    <tspan fill="#4ADE80">moab@developer</tspan>
    <tspan fill="#60A5FA"> ~ </tspan>
    <tspan fill="#E5E5E5">% cat focus.txt</tspan>
  </text>

  <text
    x="40"
    y="305"
    fill="#E5E5E5"
    font-size="22"
    font-family="SF Mono, Menlo, Monaco, Consolas, monospace">
    Building secure, scalable and user-centered web applications.
  </text>

  <!-- about -->

  <text
    x="40"
    y="360"
    font-size="22"
    font-family="SF Mono, Menlo, Monaco, Consolas, monospace">
    <tspan fill="#4ADE80">moab@developer</tspan>
    <tspan fill="#60A5FA"> ~ </tspan>
    <tspan fill="#E5E5E5">% cat about.md</tspan>
  </text>

  <text
    x="40"
    y="395"
    fill="#E5E5E5"
    font-size="22"
    font-family="SF Mono, Menlo, Monaco, Consolas, monospace">

    <tspan x="40" dy="0">
      I'm an Information Systems undergraduate at UFPB and a Full Stack Developer Intern at PBSoft.
    </tspan>

    <tspan x="40" dy="45">
      Over the past year, I've been building web applications, implementing new features in
    </tspan>

    <tspan x="40" dy="35">
      legacy systems, maintaining production software and providing technical support.
    </tspan>

    <tspan x="40" dy="45">
      I enjoy building secure, scalable and high-performance applications by following clean
    </tspan>

    <tspan x="40" dy="35">
      architecture, clean code principles and creating intuitive user experiences.
    </tspan>

    <tspan x="40" dy="45">
      Currently expanding my knowledge across the Full Stack ecosystem and always looking
    </tspan>

    <tspan x="40" dy="35">
      for new challenges.
    </tspan>

  </text>

  <!-- Tech Stack -->

  <text
    x="40"
    y="690"
    font-size="22"
    font-family="SF Mono, Menlo, Monaco, Consolas, monospace">
    <tspan fill="#4ADE80">moab@developer</tspan>
    <tspan fill="#60A5FA"> ~ </tspan>
    <tspan fill="#E5E5E5">% ls tech-stack/</tspan>
  </text>
  
  <!-- ====================== -->
  <!-- Row 1 -->
  <!-- ====================== -->
  <g transform="translate(40 715) scale(0.6875)">
    <path d="M16.0497 8.44062C22.6378 3.32607 19.2566 0 19.2566 0C19.7598 5.28738 13.813 6.53583 12.2189 10.1692C11.1312 12.6485 12.9638 14.8193 16.0475 17.5554C15.7749 16.9494 15.3544 16.3606 14.9288 15.7645C13.4769 13.7313 11.9645 11.6132 16.0497 8.44062Z" fill="#E76F00"/>
    <path d="M17.1015 18.677C17.1015 18.677 19.0835 17.0779 17.5139 15.3008C12.1931 9.27186 23.3333 6.53583 23.3333 6.53583C16.5317 9.8125 17.5471 11.7574 19.2567 14.1202C21.0871 16.6538 17.1015 18.677 17.1015 18.677Z" fill="#E76F00"/>
    <path d="M22.937 23.4456C29.0423 20.3258 26.2195 17.3278 24.2492 17.7317C23.7662 17.8305 23.5509 17.9162 23.5509 17.9162C23.5509 17.9162 23.7302 17.64 24.0726 17.5204C27.9705 16.1729 30.9682 21.4949 22.8143 23.6028C22.8143 23.6029 22.9088 23.5198 22.937 23.4456Z" fill="#5382A1"/>
    <path d="M10.233 19.4969C6.41312 18.9953 12.3275 17.6139 12.3275 17.6139C12.3275 17.6139 10.0307 17.4616 7.20592 18.8043C3.86577 20.3932 15.4681 21.1158 21.474 19.5625C22.0984 19.1432 22.9614 18.7798 22.9614 18.7798C22.9614 18.7798 20.5037 19.2114 18.0561 19.4145C15.0612 19.6612 11.8459 19.7093 10.233 19.4969Z" fill="#5382A1"/>
    <path d="M11.6864 22.4758C9.55624 22.2592 10.951 21.2439 10.951 21.2439C5.43898 23.0429 14.0178 25.083 21.7199 22.8682C20.9012 22.5844 20.3806 22.0653 20.3806 22.0653C16.6163 22.7781 14.441 22.7553 11.6864 22.4758Z" fill="#5382A1"/>
    <path d="M12.6145 25.6991C10.486 25.4585 11.7295 24.7474 11.7295 24.7474C6.72594 26.1222 14.7729 28.9625 21.1433 26.2777C20.0999 25.8787 19.3528 25.4181 19.3528 25.4181C16.5111 25.9469 15.1931 25.9884 12.6145 25.6991Z" fill="#5382A1"/>
    <path d="M25.9387 27.3388C25.9387 27.3388 26.8589 28.0844 24.9252 28.6612C21.2481 29.7566 9.62093 30.0874 6.39094 28.7049C5.22984 28.2082 7.40723 27.5189 8.09215 27.3742C8.80646 27.2219 9.21466 27.2503 9.21466 27.2503C7.9234 26.3558 0.868489 29.0067 5.63111 29.7659C18.6195 31.8372 29.3077 28.8331 25.9387 27.3388Z" fill="#5382A1"/>
    <path d="M28 28.9679C27.7869 31.6947 18.7877 32.2683 12.9274 31.8994C9.10432 31.6583 8.33812 31.0558 8.32691 31.047C11.9859 31.6402 18.1549 31.7482 23.1568 30.8225C27.5903 30.0016 28 28.9679 28 28.9679Z" fill="#5382A1"/>
  </g>
    <text x="72" y="732" fill="#E5E5E5" font-size="20" font-family="SF Mono, Menlo, Monaco, Consolas, monospace">Java</text>

  <g transform="translate(320 715) scale(0.0859375)">
    <path d="M38.9437824,35.879008 C89.5234256,-13.1200214 170.398168,-11.8028432 219.397197,39.0402357 C224.929346,31.6640377 229.671187,23.4975328 233.095851,15.0675923 C249.165425,64.0666217 258.912543,105.162582 255.224444,137.038295 C253.380395,163.90873 242.842969,189.725423 225.456217,210.273403 C180.145286,264.014274 99.53398,270.863601 45.7931091,225.55267 L45.7931091,225.55267 L44.765,224.638 L44.7103323,224.601984 C44.5420247,224.484832 44.376007,224.362668 44.2124952,224.235492 C43.7219599,223.853965 43.2765312,223.438607 42.8762093,222.995252 L42.732,222.831 L41.0512675,221.3377 C39.4121124,219.93271 37.7729573,218.52772 36.3188215,216.93771 L35.7825547,216.332423 C-13.2164747,165.752779 -11.6358609,84.8780374 38.9437824,35.879008 Z M57.9111486,207.375611 C53.169307,203.687512 46.3199803,204.214383 42.6318814,208.956225 C39.3888978,213.125775 39.4048731,218.924805 42.6798072,222.771269 L42.732,222.831 L44.765,224.638 L44.9644841,224.773953 C49.5691585,227.80174 55.7644273,227.175885 59.2982065,222.896387 L59.4917624,222.654878 C63.1798614,217.913037 62.3895545,211.06371 57.9111486,207.375611 Z M231.778672,28.2393744 C218.60689,55.9001168 185.940871,76.9749681 157.753257,83.5608592 C131.146257,89.8833146 107.963921,84.6146018 83.4644059,94.0982849 C27.6160498,115.436572 28.6697923,181.822354 59.2283268,196.838185 L59.2283268,196.838185 L61.0723763,197.891928 C61.0723763,197.891928 83.1456487,193.50309 104.973663,187.707242 L106.843514,187.207079 C115.561826,184.857554 124.138869,182.296538 131.146257,179.714869 C167.500376,166.279651 207.542593,133.08676 220.714375,94.6251562 C213.865049,134.667374 179.35498,173.392413 144.84491,191.042601 C126.404416,200.526284 112.178891,202.633769 81.883792,213.171195 C78.195693,214.488373 75.297901,215.805551 75.297901,215.805551 C75.6675607,215.754564 76.0372203,215.70481 76.4060145,215.65629 L77.1421925,215.560893 C84.5652297,214.639554 90.5771682,214.224938 90.5771682,214.224938 C133.517178,212.117452 200.956702,226.342977 232.305544,184.45671 C264.444692,141.780136 246.531068,72.7599979 231.778672,28.2393744 Z" fill="#6DB33F"/>
    <path d="M57.9111486,207.375611 C62.3895545,211.06371 63.1798614,217.913037 59.4917624,222.654878 C55.8036635,227.39672 48.9543368,227.923591 44.2124952,224.235492 C39.4706537,220.547393 38.9437824,213.698066 42.6318814,208.956225 C46.3199803,204.214383 53.169307,203.687512 57.9111486,207.375611 Z M231.778672,28.2393744 C246.531068,72.7599979 264.444692,141.780136 232.305544,184.45671 C200.956702,226.342977 133.517178,212.117452 90.5771682,214.224938 C90.5771682,214.224938 84.5652297,214.639554 77.8745239,215.468787 L77.1421925,215.560893 C76.5300999,215.63902 75.9140004,215.720572 75.297901,215.805551 C75.297901,215.805551 78.195693,214.488373 81.883792,213.171195 C112.178891,202.633769 126.404416,200.526284 144.84491,191.042601 C179.35498,173.392413 213.865049,134.667374 220.714375,94.6251562 C207.542593,133.08676 167.500376,166.279651 131.146257,179.714869 C106.119871,188.935116 61.0723763,197.891928 61.0723763,197.891928 L59.2283268,196.838185 C28.6697923,181.822354 27.6160498,115.436572 83.4644059,94.0982849 C107.963921,84.6146018 131.146257,89.8833146 157.753257,83.5608592 C185.940871,76.9749681 218.60689,55.9001168 231.778672,28.2393744 Z" fill="#FFFFFF"/>
  </g>
  <text x="352" y="732" fill="#E5E5E5" font-size="20" font-family="SF Mono, Menlo, Monaco, Consolas, monospace">Spring Boot</text>

  <g transform="translate(600 715) scale(0.083333)">
    <path d="M255.007926,158.085617 C253.473109,153.437413 249.452194,150.199279 244.251788,149.42182 C241.799982,149.055852 238.991667,149.211935 235.668988,149.897164 C229.877358,151.092028 225.580342,151.546679 222.44449,151.635363 C234.280794,131.650217 243.905921,108.859714 249.446873,87.4065589 C258.406282,52.7182633 253.61855,36.9154365 248.023797,29.7669469 C233.217182,10.8477783 211.614448,0.683454965 185.55152,0.371879908 C171.649478,0.202198614 159.443658,2.94725173 153.077358,4.92075751 C147.149155,3.87547344 140.774577,3.29134411 134.08606,3.18315012 C121.550337,2.9833164 110.473164,5.71595381 101.008259,11.332582 C95.7670577,9.56127483 87.3580785,7.06335335 77.6460416,5.46882217 C54.8035104,1.71868822 36.3939769,4.64110855 22.9282587,14.153903 C6.62230023,25.6721293 -0.937090069,45.6838799 0.461154734,73.6339954 C0.904572748,82.5082679 5.86908083,109.507695 13.6850624,135.114199 C18.1771824,149.831538 22.9672794,162.053912 27.9223279,171.443732 C34.9490254,184.758688 42.4676212,192.600092 50.9085266,195.415501 C55.6400924,196.992296 64.2358984,198.09552 73.2774873,190.566873 C74.4232794,191.953885 75.9515935,193.33321 77.9812656,194.613801 C80.5578199,196.239076 83.7090439,197.566965 86.8555381,198.353885 C98.1969885,201.189395 108.820102,200.479926 117.882975,196.506309 C117.93855,198.117986 117.981709,199.658125 118.018365,200.987788 C118.07867,203.145164 118.137792,205.259972 118.217016,207.237617 C118.753848,220.612286 119.663741,231.011326 122.359723,238.286928 C122.507529,238.687778 122.706771,239.29733 122.917247,239.943538 C124.261691,244.062005 126.511298,250.955677 132.232573,256.355326 C138.158411,261.947714 145.325229,263.663446 151.888998,263.662855 C155.180933,263.662855 158.322106,263.231261 161.076619,262.640628 C170.897441,260.536462 182.050291,257.329663 190.118134,245.84218 C197.745515,234.981986 201.453672,218.625182 202.124711,192.851363 C202.211621,192.122975 202.292028,191.427104 202.369478,190.763751 C202.421506,190.316194 202.474716,189.858587 202.528517,189.402162 L204.325838,189.560018 L204.788767,189.591353 C214.791095,190.047187 227.021155,187.925875 234.532065,184.437062 C240.467363,181.68255 259.485857,171.642383 255.007926,158.085617" fill="#000000"></path>
    <path d="M237.905589,160.722476 C208.165838,166.857016 206.121386,156.78788 206.121386,156.78788 C237.521885,110.194697 250.64824,51.0516028 239.320388,36.5766651 C208.417109,-2.90823095 154.921977,15.7655797 154.029229,16.2503834 L153.741894,16.3018199 C147.866309,15.0821247 141.290716,14.3555104 133.900416,14.2349007 C120.443566,14.0143741 110.236083,17.7627344 102.490457,23.636545 C102.490457,23.636545 7.06039723,-15.6768961 11.4987159,73.0806097 C12.4429007,91.9631224 38.5625866,215.954032 69.7171363,178.502947 C81.1041109,164.808425 92.1061986,153.229303 92.1061986,153.229303 C97.5708822,156.859418 104.112776,158.711132 110.970975,158.046005 L111.503667,157.593718 C111.338125,159.294079 111.413801,160.957192 111.717099,162.925968 C103.691233,171.893062 106.049626,173.467492 90.0055797,176.770069 C73.7711594,180.115806 83.308194,186.072388 89.5349654,187.629081 C97.0837136,189.516859 114.54788,192.190965 126.34812,175.672166 L125.877506,177.556988 C129.022226,180.075603 131.230448,193.940397 130.860342,206.508637 C130.490236,219.077469 130.243104,227.706383 132.720924,234.446337 C135.198744,241.186291 137.668286,256.351187 158.759612,251.831871 C176.383409,248.055132 185.516046,238.268009 186.786587,221.94254 C187.688203,210.336222 189.728517,212.051954 189.857404,201.675381 L191.493912,196.762901 C193.381099,181.029838 191.793663,175.95418 202.651492,178.314938 L205.290125,178.546697 C213.2817,178.9103 223.741044,177.261376 229.879723,174.408129 C243.098309,168.273589 250.93794,158.031224 237.904406,160.722476 L237.905589,160.722476" fill="#336791"></path>
    <path d="M108.076342,81.5250624 C105.396915,81.152 102.969349,81.4972748 101.741376,82.426679 C101.050236,82.9499122 100.836804,83.5559169 100.779455,83.973321 C100.625145,85.0783187 101.399649,86.2997875 101.874993,86.9300323 C103.220619,88.7137552 105.18703,89.9399538 107.133339,90.2101432 C107.415353,90.249164 107.695594,90.2680831 107.974651,90.2680831 C111.220471,90.2680831 114.170679,87.7411917 114.430818,85.8758799 C114.755991,83.5399538 111.36473,81.9826697 108.076342,81.5250624" fill="#FFFFFF"></path>
    <path d="M196.860453,81.5989654 L196.859861,81.5989654 C196.604453,79.7679446 193.345626,79.2458938 190.253524,79.6757136 C187.166152,80.1061247 184.171603,81.4996397 184.421691,83.3347991 C184.622707,84.7620139 187.19867,87.198448 190.249386,87.1978568 C190.506568,87.1978568 190.766707,87.1807113 191.028619,87.1440554 C193.064794,86.8620416 194.558818,85.5690346 195.268286,84.8235012 C196.349635,83.688351 196.974559,82.4219492 196.860453,81.5989654" fill="#FFFFFF"></path>
    <path d="M247.802088,160.025423 C246.66812,156.596323 243.018494,155.492508 236.954309,156.745312 C218.949173,160.461155 212.501284,157.886965 210.38352,156.327908 C224.378975,135.007187 235.89188,109.236323 242.102688,85.1906513 C245.04521,73.8007206 246.670485,63.2231316 246.802919,54.601903 C246.949543,45.1375889 245.338457,38.1842032 242.014005,33.9362587 C228.611547,16.8108637 208.942115,7.62501617 185.131751,7.37256351 C168.763122,7.18869284 154.93321,11.3781062 152.252009,12.5558245 C146.60582,11.1516674 140.450587,10.2896628 133.750245,10.1796952 C121.461654,9.98104388 110.840314,12.9229746 102.045857,18.9191686 C98.2259584,17.4978661 88.3536998,14.10897 76.2814965,12.1644342 C55.4089238,8.80332564 38.8233164,11.3497275 26.9870115,19.7350577 C12.8638522,29.740933 6.34383372,47.626642 7.60727945,72.8943741 C8.03236952,81.3961755 12.8756767,107.547788 20.5202032,132.593219 C30.5822448,165.556915 41.5192979,184.218309 53.0280647,188.056536 C54.374873,188.505866 55.9286097,188.820397 57.6407945,188.820397 C61.8390762,188.820397 66.9856813,186.927889 72.3409885,180.490051 C81.2359538,169.788896 89.5408776,160.821801 92.6022356,157.563566 C97.1262818,159.992314 102.09552,161.347991 107.179455,161.483972 C107.188323,161.616998 107.201921,161.750023 107.213746,161.882457 C106.193885,163.092102 105.357303,164.152166 104.644286,165.05733 C101.122365,169.528166 100.389247,170.458753 89.0519353,172.793497 C85.8273995,173.458624 77.2611547,175.224018 77.1364065,181.227898 C76.9998337,187.787529 87.2605266,190.542633 88.4299677,190.834697 C92.5040924,191.854559 96.4286374,192.357691 100.171677,192.357691 C109.275344,192.357099 117.285838,189.365506 123.688203,183.576831 C123.490734,206.962697 124.466254,230.006836 127.273977,237.028212 C129.573247,242.775501 135.191649,256.822984 152.93842,256.821801 C155.54158,256.821801 158.408425,256.519095 161.561423,255.843326 C180.082106,251.872074 188.124527,243.686577 191.236139,225.640055 C192.901025,215.995418 195.758411,192.963695 197.101672,180.610069 C199.937774,181.49454 203.589173,181.899529 207.536185,181.898938 C215.768388,181.898938 225.266993,180.150097 231.224166,177.384942 C237.91564,174.277469 249.991982,166.650679 247.802088,160.025423 L247.802088,160.025423 Z M203.696185,76.5445912 C203.634697,80.1918522 203.132748,83.5027067 202.600647,86.9590023 C202.028342,90.6760277 201.435935,94.5189838 201.286947,99.1843326 C201.139732,103.724342 201.706716,108.444674 202.255372,113.008924 C203.363326,122.228471 204.500249,131.720573 200.098587,141.086744 C199.41454,139.871778 198.754143,138.546254 198.14873,137.078245 C197.601848,135.752129 196.414079,133.621949 194.769885,130.673515 C188.370476,119.197857 173.385312,92.3243603 181.056443,81.3583372 C183.340933,78.0935982 189.139658,74.7384018 203.696185,76.5445912 L203.696185,76.5445912 Z M186.052286,14.7581339 C207.386014,15.2293395 224.261321,23.2102725 236.209958,38.4780416 C245.373931,50.1890069 235.282919,103.476028 206.069949,149.446651 C205.781432,149.080092 205.487594,148.709986 205.183704,148.33042 C205.062503,148.178476 204.938938,148.024166 204.814189,147.868083 C212.362938,135.400942 210.886651,123.066236 209.572952,112.129774 C209.033164,107.641792 208.523529,103.402716 208.653007,99.4214134 C208.787215,95.2000739 209.34533,91.5811917 209.884527,88.0811455 C210.548471,83.7675751 211.223058,79.3050162 211.036822,74.0437136 C211.17576,73.4921016 211.231926,72.8399815 211.159206,72.0660693 C210.683861,67.0205635 204.924157,51.9224758 193.18363,38.2551501 C186.762346,30.7808961 177.396767,22.4156674 164.609774,16.7736166 C170.109931,15.6337367 177.631483,14.5707159 186.052286,14.7581339 L186.052286,14.7581339 Z M66.6741062,175.777995 C60.7742818,182.871501 56.6995658,181.512277 55.3598522,181.065903 C46.6292471,178.153533 36.499806,159.702023 27.568776,130.441755 C19.8408868,105.123769 15.3245266,79.6650716 14.9674273,72.5260416 C13.8387806,49.9483788 19.3117413,34.2129515 31.2349561,25.7572656 C50.6389284,11.9965266 82.5413764,20.2328684 95.3602956,24.4104573 C95.1758337,24.591963 94.9842771,24.7622356 94.8015889,24.9466975 C73.7664296,46.1911501 74.2654226,82.4875751 74.3168591,84.7058476 C74.3150855,85.56194 74.3866236,86.7739492 74.485358,88.4412009 C74.8471871,94.5455889 75.5205912,105.907732 73.7214965,118.775132 C72.0489238,130.732046 75.7346143,142.435326 83.8320185,150.883917 C84.6703741,151.758337 85.5453857,152.579547 86.4493672,153.352277 C82.8446744,157.212379 75.0115473,165.74788 66.6741062,175.777995 L66.6741062,175.777995 Z M89.1530346,145.78461 C82.6265127,138.975483 79.6627067,129.503483 81.020157,119.795584 C82.920351,106.202753 82.2185681,94.3646744 81.8419584,88.0048776 C81.7893395,87.1150855 81.7426328,86.335261 81.7148453,85.7197968 C84.7880277,82.9954365 99.0288406,75.3645081 109.184296,77.6915658 C113.819492,78.7534042 116.642587,81.9087667 117.816758,87.3373857 C123.893358,115.440037 118.621413,127.153367 114.385293,136.565654 C113.512055,138.504868 112.687298,140.337663 111.982559,142.234309 L111.436859,143.699954 C110.054577,147.406337 108.768665,150.851991 107.971695,154.124416 C101.034273,154.103132 94.2848591,151.139917 89.1530346,145.78461 L89.1530346,145.78461 Z M90.2178291,183.685025 C88.1922956,183.178938 86.3701432,182.299788 85.3012102,181.570808 C86.1939584,181.150448 87.7831686,180.579326 90.5388637,180.011751 C103.876286,177.265515 105.93552,175.328074 110.433552,169.61685 C111.465238,168.30788 112.634088,166.823316 114.252859,165.015353 C114.25345,165.014171 114.254042,165.01358 114.254633,165.012988 C116.666236,162.31346 117.768868,162.771067 119.768979,163.600554 C121.390115,164.271594 122.968684,166.303039 123.608979,168.539048 C123.911686,169.594975 124.252231,171.599815 123.138956,173.158873 C113.742633,186.31479 100.051067,186.1457 90.2178291,183.685025 L90.2178291,183.685025 Z M160.016554,248.637487 C143.700545,252.133395 137.923695,243.80837 134.116804,234.291436 C131.659677,228.146845 130.452397,200.440314 131.309081,169.84388 C131.320314,169.436527 131.262374,169.043363 131.150042,168.673848 C131.05249,167.96024 130.902319,167.238356 130.694208,166.511741 C129.419529,162.059824 126.315012,158.335704 122.5903,156.792018 C121.110467,156.178919 118.393792,155.05382 115.129644,155.888628 C115.826106,153.0206 117.033386,149.782467 118.341764,146.275326 L118.891012,144.79963 C119.509432,143.136517 120.284527,141.413691 121.105145,139.590356 C125.538143,129.741746 131.609423,116.25297 125.020231,85.7795104 C122.551871,74.3659307 114.310208,68.7924619 101.815871,70.0866513 C94.3250624,70.861746 87.472776,73.8840831 84.0549099,75.6169607 C83.3200185,75.9894319 82.6477968,76.3488961 82.0199169,76.6994919 C82.9735612,65.1990023 86.578254,43.707418 100.060527,30.1098568 C108.54873,21.548933 119.854115,17.3210901 133.628453,17.5487113 C160.768591,17.9933118 178.172453,31.9213672 187.994457,43.5276859 C196.457829,53.5294226 201.040998,63.6038799 202.870245,69.0372286 C189.115418,67.6389838 179.76048,70.3544758 175.017681,77.1340416 C164.700822,91.8815335 180.662097,120.506236 188.333229,134.262836 C189.739751,136.784406 190.954125,138.963067 191.336055,139.888924 C193.833977,145.943058 197.067972,149.984665 199.429321,152.935464 C200.152979,153.839446 200.855353,154.716231 201.389229,155.481866 C197.223464,156.683233 189.740342,159.457848 190.422023,173.328554 C189.872185,180.289035 185.960647,212.874938 183.974134,224.387843 C181.351464,239.597672 175.754346,245.263372 160.016554,248.637487 L160.016554,248.637487 Z M228.120831,170.700564 C223.861062,172.678208 216.732083,174.161589 209.959612,174.479667 C202.479446,174.830263 198.671963,173.641903 197.776259,172.91115 C197.355307,164.267455 200.573339,163.364065 203.978199,162.408055 C204.513256,162.257293 205.035307,162.111261 205.53903,161.935076 C205.852379,162.189894 206.195289,162.442938 206.570716,162.690661 C212.582873,166.658956 223.306494,167.087002 238.444785,163.962383 C238.50036,163.950559 238.555935,163.939917 238.610919,163.928684 C236.569423,165.837746 233.075289,168.400111 228.120831,170.700564 L228.120831,170.700564 Z" fill="#FFFFFF"></path>
  </g>
  <text x="632" y="732" fill="#E5E5E5" font-size="20" font-family="SF Mono, Menlo, Monaco, Consolas, monospace">PostgreSQL</text>

  <g transform="translate(880 715) scale(0.6875)">
    <path d="M2.58536 17.4132C1.80488 16.6327 1.80488 15.3673 2.58536 14.5868L14.5868 2.58536C15.3673 1.80488 16.6327 1.80488 17.4132 2.58536L29.4146 14.5868C30.1951 15.3673 30.1951 16.6327 29.4146 17.4132L17.4132 29.4146C16.6327 30.1951 15.3673 30.1951 14.5868 29.4146L2.58536 17.4132Z" fill="#EE513B"/>
    <path d="M12.1489 5.06152L10.9336 6.27686L14.0725 9.41577C13.9455 9.68819 13.8746 9.99201 13.8746 10.3124C13.8746 11.222 14.4461 11.9981 15.2496 12.3012V19.9798C14.4461 20.2829 13.8746 21.059 13.8746 21.9686C13.8746 23.1422 14.826 24.0936 15.9996 24.0936C17.1732 24.0936 18.1246 23.1422 18.1246 21.9686C18.1246 21.144 17.6549 20.429 16.9684 20.0768V12.3117L19.9689 15.3122C19.8481 15.5791 19.7809 15.8754 19.7809 16.1874C19.7809 17.361 20.7323 18.3124 21.9059 18.3124C23.0795 18.3124 24.0309 17.361 24.0309 16.1874C24.0309 15.0138 23.0795 14.0624 21.9059 14.0624C21.6778 14.0624 21.4582 14.0983 21.2522 14.1648L18.0297 10.9423C18.0914 10.7433 18.1246 10.5317 18.1246 10.3124C18.1246 9.13878 17.1732 8.18738 15.9996 8.18738C15.7803 8.18738 15.5688 8.22061 15.3697 8.2823L12.1489 5.06152Z" fill="white"/>
  </g>
  <text x="912" y="732" fill="#E5E5E5" font-size="20" font-family="SF Mono, Menlo, Monaco, Consolas, monospace">Git</text>

  <!-- ====================== -->
  <!-- Row 2 -->
  <!-- ====================== -->
  <g transform="translate(40 765) scale(0.6875)">
    <rect x="2" y="2" width="28" height="28" fill="#FFCA28"/>
    <path d="M19 25.2879L21.0615 23.9237C21.2231 24.4313 22.2462 25.6368 23.5385 25.6368C24.8308 25.6368 25.4308 24.931 25.4308 24.463C25.4308 23.1878 24.1112 22.7382 23.4774 22.5223C23.374 22.4871 23.289 22.4581 23.2308 22.4328C23.2009 22.4198 23.1558 22.4025 23.0979 22.3804C22.393 22.1111 19.7923 21.1175 19.7923 18.2373C19.7923 15.065 22.8538 14.7002 23.5462 14.7002C23.9991 14.7002 26.1769 14.7557 27.2615 16.7939L25.2615 18.1898C24.8231 17.3015 24.0946 17.0081 23.6462 17.0081C22.5385 17.0081 22.3077 17.8201 22.3077 18.1898C22.3077 19.227 23.5112 19.6919 24.5273 20.0844C24.7932 20.1871 25.0462 20.2848 25.2615 20.3866C26.3692 20.91 28 21.7666 28 24.463C28 25.8136 26.8672 28.0002 24.0154 28.0002C20.1846 28.0002 19.1692 25.7003 19 25.2879Z" fill="#3E3E3E"/>
    <path d="M9 25.5587L11.1487 24.1953C11.317 24.7026 11.9713 25.638 12.9205 25.638C13.8698 25.638 14.3557 24.663 14.3557 24.1953V15.0002H16.9982V24.1953C17.041 25.4636 16.3376 28.0002 13.2332 28.0002C10.379 28.0002 9.19242 26.3039 9 25.5587Z" fill="#3E3E3E"/>
  </g>
  <text x="72" y="782" fill="#E5E5E5" font-size="20" font-family="SF Mono, Menlo, Monaco, Consolas, monospace">JavaScript</text>

  <g transform="translate(320 765) scale(0.083333)">
    <path d="M255.855641,59.619717 C255.950565,59.9710596 256,60.3333149 256,60.6972536 L256,117.265345 C256,118.743206 255.209409,120.108149 253.927418,120.843385 L206.448786,148.178786 L206.448786,202.359798 C206.448786,203.834322 205.665123,205.195421 204.386515,205.937838 L105.27893,262.990563 C105.05208,263.119455 104.804608,263.201946 104.557135,263.289593 C104.464333,263.320527 104.376687,263.377239 104.278729,263.403017 C103.585929,263.58546 102.857701,263.58546 102.164901,263.403017 C102.051476,263.372083 101.948363,263.310215 101.840093,263.26897 C101.613244,263.186479 101.376082,263.1143 101.159544,262.990563 L2.07258227,205.937838 C0.7913718,205.201819 0,203.837372 0,202.359798 L0,32.6555248 C0,32.2843161 0.0515567729,31.9234187 0.144358964,31.5728326 C0.175293028,31.454252 0.24747251,31.3459828 0.288717928,31.2274022 C0.366053087,31.0108638 0.438232569,30.7891697 0.55165747,30.5880982 C0.628992629,30.4540506 0.742417529,30.3457814 0.83521972,30.2220451 C0.953800298,30.0570635 1.06206952,29.8869261 1.20127281,29.7425672 C1.31985339,29.6239866 1.4745237,29.5363401 1.60857131,29.4332265 C1.75808595,29.3094903 1.89213356,29.1754427 2.06227091,29.0774848 L2.06742659,29.0774848 L51.6134853,0.551122364 C52.8901903,-0.183535768 54.4613221,-0.183535768 55.7380271,0.551122364 L105.284086,29.0774848 L105.294397,29.0774848 C105.459379,29.1805983 105.598582,29.3094903 105.748097,29.4280708 C105.882144,29.5311844 106.031659,29.6239866 106.15024,29.7374115 C106.294599,29.8869261 106.397712,30.0570635 106.521448,30.2220451 C106.609095,30.3457814 106.727676,30.4540506 106.799855,30.5880982 C106.918436,30.7943253 106.985459,31.0108638 107.06795,31.2274022 C107.109196,31.3459828 107.181375,31.454252 107.212309,31.5779883 C107.307234,31.9293308 107.355765,32.2915861 107.356668,32.6555248 L107.356668,138.651094 L148.643332,114.878266 L148.643332,60.6920979 C148.643332,60.3312005 148.694889,59.9651474 148.787691,59.619717 C148.823781,59.4959808 148.890804,59.3877116 148.93205,59.269131 C149.014541,59.0525925 149.08672,58.8308984 149.200145,58.629827 C149.27748,58.4957794 149.390905,58.3875102 149.478552,58.2637739 C149.602288,58.0987922 149.705401,57.9286549 149.84976,57.7842959 C149.968341,57.6657153 150.117856,57.5780688 150.251903,57.4749553 C150.406573,57.351219 150.540621,57.2171714 150.705603,57.1192136 L150.710758,57.1192136 L200.261973,28.5928511 C201.538395,27.8571345 203.110093,27.8571345 204.386515,28.5928511 L253.932573,57.1192136 C254.107866,57.2223271 254.241914,57.351219 254.396584,57.4697996 C254.525476,57.5729132 254.674991,57.6657153 254.793572,57.7791402 C254.93793,57.9286549 255.041044,58.0987922 255.16478,58.2637739 C255.257582,58.3875102 255.371007,58.4957794 255.443187,58.629827 C255.561767,58.8308984 255.628791,59.0525925 255.711282,59.269131 C255.757683,59.3877116 255.824707,59.4959808 255.855641,59.619717 Z M247.740605,114.878266 L247.740605,67.8378666 L230.402062,77.8192579 L206.448786,91.6106946 L206.448786,138.651094 L247.745761,114.878266 L247.740605,114.878266 Z M198.194546,199.97272 L198.194546,152.901386 L174.633101,166.357704 L107.351512,204.757188 L107.351512,252.27191 L198.194546,199.97272 Z M8.25939501,39.7961379 L8.25939501,199.97272 L99.0921175,252.266755 L99.0921175,204.762344 L51.6392637,177.906421 L51.6237967,177.89611 L51.603174,177.885798 C51.443348,177.792996 51.3093004,177.658949 51.1597857,177.545524 C51.0308938,177.44241 50.8813791,177.359919 50.7679542,177.246494 L50.7576429,177.231027 C50.6235953,177.102135 50.5307931,176.942309 50.4173682,176.79795 C50.3142546,176.658747 50.1905184,176.540167 50.1080276,176.395808 L50.1028719,176.380341 C50.0100697,176.22567 49.9533572,176.040066 49.8863334,175.864773 C49.8193096,175.710103 49.7316631,175.565744 49.6904177,175.400762 L49.6904177,175.395606 C49.6388609,175.19969 49.6285496,174.993463 49.6079269,174.792392 C49.5873041,174.637722 49.5460587,174.483051 49.5460587,174.328381 L49.5460587,174.31807 L49.5460587,63.5689658 L25.5979377,49.7723734 L8.25939501,39.8012935 L8.25939501,39.7961379 Z M53.6809119,8.89300821 L12.3994039,32.6555248 L53.6706006,56.4180414 L94.9469529,32.6503692 L53.6706006,8.89300821 L53.6809119,8.89300821 Z M75.1491521,157.19091 L99.0972731,143.404629 L99.0972731,39.7961379 L81.7587304,49.7775291 L57.8054537,63.5689658 L57.8054537,167.177457 L75.1491521,157.19091 Z M202.324244,36.934737 L161.047891,60.6972536 L202.324244,84.4597702 L243.59544,60.6920979 L202.324244,36.934737 Z M198.194546,91.6106946 L174.24127,77.8192579 L156.902727,67.8378666 L156.902727,114.878266 L180.850848,128.664547 L198.194546,138.651094 L198.194546,91.6106946 Z M103.216659,197.616575 L163.759778,163.052915 L194.023603,145.781396 L152.778185,122.034346 L105.289242,149.374903 L62.0073307,174.292291 L103.216659,197.616575 Z" fill="#FF2D20"></path>
  </g>
  <text x="352" y="782" fill="#E5E5E5" font-size="20" font-family="SF Mono, Menlo, Monaco, Consolas, monospace">Laravel</text>

  <g transform="translate(600 765) scale(0.9166)">
    <path fill="#00758F" fill-rule="evenodd" d="M5.46192862,4.04007684 C5.18892668,4.03501656 4.99575061,4.06967946 4.79169495,4.11446291 L4.79169495,4.15152944 L4.82901449,4.15152944 C4.95944313,4.41909158 5.18943271,4.591394 5.35034952,4.82188962 C5.47407329,5.08262038 5.59817658,5.34297163 5.72227987,5.60332288 C5.73493056,5.5909252 5.74745474,5.57865403 5.75959941,5.56625635 C5.99047454,5.40394797 6.0957283,5.14410275 6.09471625,4.74737704 C6.00211318,4.64996671 5.98832392,4.52826705 5.90837155,4.4122602 C5.80235875,4.25754224 5.59615247,4.17012595 5.46192862,4.04007684 Z M23.478665,23.1369293 C23.6543831,23.2658398 23.772161,23.4657208 24,23.5466852 L24,23.5093657 C23.8800714,23.3573044 23.8495833,23.1474294 23.7395222,22.9880306 C23.5786054,22.8271138 23.4164236,22.6655645 23.2555068,22.5040152 C22.7821179,21.8759083 22.1818425,21.3245911 21.5432356,20.8663831 C21.0345512,20.5006515 19.8944709,20.0072745 19.6819392,19.4148426 C19.6697946,19.4021919 19.6571439,19.3896677 19.6444932,19.3770171 C20.0054174,19.3365348 20.4283301,19.2059797 20.7614228,19.1165393 C21.3210894,18.9665021 21.8214243,19.0054662 22.3990549,18.8560615 C22.6600387,18.781296 22.9203899,18.7066569 23.1808677,18.6329033 L23.1808677,18.4834987 C22.8887632,18.1836773 22.6805328,17.7869515 22.3622414,17.5155942 C21.5283078,16.8061434 20.6188495,16.0966926 19.6818127,15.5056522 C19.1626283,15.1774933 18.5200996,14.9645821 17.969415,14.6865199 C17.7842089,14.5931578 17.4590861,14.5444526 17.3365009,14.3887226 C17.0476856,14.0198284 16.8899314,13.5523853 16.6667732,13.1228943 C16.1997097,12.2230506 15.740363,11.2403448 15.3263059,10.293567 C15.044322,9.6481287 14.8597484,9.01154587 14.5076796,8.43227067 C12.8174206,5.65329311 10.9976185,3.97581132 8.17942382,2.3270466 C7.57927498,1.97649592 6.85742648,1.83809735 6.09471625,1.65719245 C5.68546635,1.6325236 5.27545742,1.60734872 4.86620752,1.58267987 C4.61635635,1.47831166 4.35651113,1.17267094 4.12184079,1.02427832 C3.18796669,0.434503045 0.792811133,-0.848656668 0.10157731,0.838313141 C-0.335124586,1.90286889 0.753847001,2.94174374 1.14361483,3.48142227 C1.4172493,3.85980447 1.76704094,4.2842352 1.96287366,4.70967798 C2.09127818,4.98938478 2.11316388,5.27010364 2.22385744,5.56600333 C2.49432924,6.29518923 2.7293791,7.08838764 3.07929725,7.76241652 C3.25653344,8.10322617 3.45173363,8.46263233 3.67539786,8.76738751 C3.81265788,8.95449125 4.04720171,9.03684725 4.08401522,9.32578906 C3.85465817,9.64749617 3.84150145,10.1466925 3.7125909,10.5541713 C3.13065906,12.3887747 3.35014857,14.6686824 4.19660638,16.0266077 C4.45594557,16.443195 5.06773305,17.3374725 5.90837155,16.9942592 C6.64375629,16.6946908 6.47980332,15.76613 6.69018433,14.9469976 C6.73749792,14.760906 6.70865434,14.624405 6.80176344,14.5003017 C7.02542767,14.9840642 7.2488389,15.4307601 7.47199711,15.8773296 C7.96815726,16.6759678 8.84826592,17.5111665 9.59415073,18.0739958 C9.98037636,18.3659737 10.2848785,18.8709894 10.7852134,19.0419002 L10.7852134,19.0040746 C10.6504835,18.8536579 10.4989282,18.790531 10.3759635,18.6694638 C10.0844916,18.3836847 9.76050733,18.0287063 9.51938514,17.7014329 C8.84080201,16.780589 8.24153872,15.7725818 7.69553484,14.7235864 C7.43455106,14.2224925 7.20785066,13.6697838 6.98785512,13.1600874 C6.90322199,12.9633691 6.90423404,12.6662043 6.72737736,12.5643663 C6.48650818,12.9378147 6.13190928,13.2401663 5.94556458,13.6811694 C5.64776729,14.386319 5.60943569,15.2461865 5.49899515,16.1379338 C5.43371758,16.1614641 5.46268766,16.1453977 5.42422956,16.1750003 C4.90555118,16.0502645 4.72350772,15.5164053 4.53096418,15.0584502 C4.04378602,13.9006589 3.95333357,12.0360734 4.38206553,10.7030699 C4.4930121,10.3583386 4.99499157,9.27202362 4.79131543,8.95347919 C4.69441112,8.63544079 4.37510765,8.45187925 4.19635337,8.20885945 C3.97420721,7.90853201 3.75332613,7.5134509 3.59974672,7.16644241 C3.20150293,6.26368901 3.01528474,5.25024206 2.59540827,4.33749461 C2.39451528,3.90142525 2.0550972,3.45966308 1.77627595,3.07166635 C1.46759906,2.64204884 1.12185564,2.32578153 0.882884062,1.80583808 C0.797744903,1.62126448 0.681991069,1.32587082 0.808244978,1.13598393 C0.848094658,1.00783242 0.905022773,0.954446496 1.03190922,0.912572704 C1.24810955,0.746089595 1.84889092,0.967982736 2.07394674,1.06147135 C2.67055338,1.30929841 3.16924367,1.54548684 3.67489184,1.88035066 C3.91740561,2.04126747 4.16295554,2.35272751 4.45607208,2.43887872 L4.79118892,2.43887872 C5.31568662,2.5591868 5.90280525,2.47645128 6.39200751,2.62509691 C7.25744137,2.8881048 8.0329288,3.29722819 8.73719284,3.74202653 C10.8826237,5.09653615 12.6370217,7.02526068 13.8370664,9.32578906 C14.030116,9.69620133 14.1138635,10.0496617 14.2836358,10.4427187 C14.6265961,11.2350315 15.0591233,12.0501156 15.4004389,12.825097 C15.7408691,13.5978013 16.0728232,14.3779695 16.5541821,15.0213837 C16.8071959,15.3594102 17.7850944,15.5408211 18.2297663,15.7288104 C18.5412263,15.8602511 19.0514287,15.9976376 19.3460633,16.1750003 C19.9100312,16.5151775 20.4556556,16.9197466 20.9842015,17.292183 C21.2483479,17.4785277 22.0606489,17.886639 22.1006251,18.2223884 C20.7916579,18.1877255 19.7916207,18.3092986 18.9366869,18.6695903 C18.6936671,18.7716814 18.3064295,18.7747176 18.2664533,19.0787137 C18.4000446,19.2186304 18.4211712,19.4281259 18.527437,19.6000488 C18.7309867,19.9304848 19.0755915,20.3728795 19.3833829,20.6053993 C19.7195118,20.8590456 20.0657612,21.130403 20.4255469,21.3498925 C21.0663045,21.7407989 21.7818276,21.9638306 22.3984224,22.3551165 C22.7632683,22.5861182 23.1241926,22.8764515 23.478665,23.1369293 Z"/>
  </g>
  <text x="632" y="782" fill="#E5E5E5" font-size="20" font-family="SF Mono, Menlo, Monaco, Consolas, monospace">MySQL</text>

  <g transform="translate(880 765) scale(1.375)">
    <path fill="#202020" d="M13.338 12.033c-.1-.112-.146-.319-.197-.54-.05-.22-.107-.457-.288-.61v-.001a.756.756 0 00-.223-.134c.252-.745.153-1.487-.1-2.157-.312-.823-.855-1.54-1.27-2.03-.464-.586-.918-1.142-.91-1.963.014-1.254.138-3.579-2.068-3.582-.09 0-.183.004-.28.012-2.466.198-1.812 2.803-1.849 3.675-.045.638-.174 1.14-.613 1.764-.515.613-1.24 1.604-1.584 2.637-.162.487-.24.984-.168 1.454-.023.02-.044.041-.064.063-.151.161-.263.357-.388.489-.116.116-.282.16-.464.225-.183.066-.383.162-.504.395v.001a.702.702 0 00-.077.339c0 .108.016.217.032.322.034.22.068.427.023.567-.144.395-.163.667-.061.865.102.199.31.286.547.335.473.1 1.114.075 1.619.342l.043-.082-.043.082c.54.283 1.089.383 1.526.284a.99.99 0 00.706-.552c.342-.002.717-.146 1.318-.18.408-.032.918.145 1.503.113a.806.806 0 00.068.183l.001.001c.227.455.65.662 1.1.627.45-.036.928-.301 1.315-.762l-.07-.06.07.06c.37-.448.982-.633 1.388-.878.203-.123.368-.276.38-.499.013-.222-.118-.471-.418-.805z"/><path fill="#F8BF11" d="M13.571 12.828c-.007.137-.107.24-.29.35-.368.222-1.019.414-1.434.918-.362.43-.802.665-1.19.696-.387.03-.721-.13-.919-.526v-.002c-.123-.233-.072-.6.031-.987s.251-.785.271-1.108v-.001c.02-.415.044-.776.114-1.055.07-.28.179-.468.373-.575a.876.876 0 01.027-.014c.022.359.2.725.514.804.343.09.838-.204 1.047-.445l.122-.004c.184-.005.337.006.495.143v.001c.121.102.179.296.229.512.05.217.09.453.239.621.287.32.38.534.371.672zM6.592 13.843v.003c-.034.435-.28.672-.656.758-.377.086-.888 0-1.398-.266-.565-.3-1.237-.27-1.667-.36-.216-.045-.357-.113-.421-.238-.064-.126-.066-.345.071-.72v-.001l.001-.002c.068-.209.018-.438-.015-.653-.033-.214-.049-.41.024-.546l.001-.001c.094-.181.232-.246.403-.307.17-.062.373-.11.533-.27l.001-.001h.001c.148-.157.26-.353.39-.492.11-.117.22-.195.385-.196h.005a.61.61 0 01.093.008c.22.033.411.187.596.437l.533.971v.001c.142.296.441.622.695.954.254.333.45.666.425.921z"/><path fill="#D6A312" d="M9.25 4.788c-.043-.084-.13-.164-.28-.225-.31-.133-.444-.142-.617-.254-.28-.181-.513-.244-.706-.244a.834.834 0 00-.272.047c-.236.08-.392.25-.49.342-.02.019-.044.035-.104.08-.06.043-.15.11-.28.208-.117.086-.154.2-.114.332.04.132.167.285.4.417h.001c.145.085.244.2.358.291a.801.801 0 00.189.117c.072.031.156.052.26.058.248.015.43-.06.59-.151.16-.092.296-.204.452-.255h.001c.32-.1.548-.301.62-.493a.324.324 0 00-.008-.27z"/><path fill="#202020" d="M8.438 5.26c-.255.133-.552.294-.869.294-.316 0-.566-.146-.745-.289-.09-.07-.163-.142-.218-.193-.096-.075-.084-.181-.045-.178.066.008.076.095.117.134.056.052.126.12.211.187.17.135.397.266.68.266.284 0 .614-.166.816-.28.115-.064.26-.179.379-.266.09-.067.087-.147.162-.138.075.009.02.089-.085.18-.105.092-.27.214-.403.283z"/><path fill="#ffffff" d="M12.337 10.694a1.724 1.724 0 00-.104 0h-.01c.088-.277-.106-.48-.621-.713-.534-.235-.96-.212-1.032.265-.005.025-.009.05-.011.076a.801.801 0 00-.12.054c-.252.137-.389.386-.465.692-.076.305-.098.674-.119 1.09-.013.208-.099.49-.186.79-.875.624-2.09.894-3.122.19-.07-.11-.15-.22-.233-.328a13.85 13.85 0 00-.16-.205.65.65 0 00.268-.05.34.34 0 00.186-.192c.063-.17 0-.408-.202-.68-.201-.273-.542-.58-1.043-.888-.368-.23-.574-.51-.67-.814-.097-.305-.084-.635-.01-.96.143-.625.51-1.233.743-1.614.063-.046.023.086-.236.567-.232.44-.667 1.455-.072 2.248.016-.564.15-1.14.377-1.677.329-.747 1.018-2.041 1.072-3.073.029.02.125.086.169.11.126.075.221.184.344.283a.85.85 0 00.575.2c.24 0 .427-.079.582-.168.17-.096.304-.204.433-.245.27-.085.486-.235.608-.41.21.83.7 2.027 1.014 2.611.167.31.5.969.643 1.762.091-.002.191.01.299.038.375-.973-.319-2.022-.636-2.314-.128-.124-.135-.18-.07-.177.343.304.795.917.96 1.608.075.315.09.646.01.973.04.017.08.034.12.054.603.293.826.548.719.897z"/><path fill="#E6E6E6" d="M8.04 8.062c-.556.002-1.099.251-1.558.716-.46.464-.814 1.122-1.018 1.888l.061.038v.004c.47.298.805.598 1.012.878.219.296.316.584.223.834a.513.513 0 01-.27.283l-.041.015c.074.097.146.197.213.3.944.628 2.042.396 2.867-.172.08-.278.153-.536.163-.698.021-.415.042-.792.124-1.12.082-.33.242-.63.544-.795.017-.01.034-.015.051-.023a.756.756 0 01.022-.094c-.242-.622-.591-1.14-1.01-1.5-.42-.36-.897-.551-1.382-.554zm2.37 2.155l-.002.005v-.002l.001-.004z"/><path fill="#ffffff" d="M9.278 3.833a1.05 1.05 0 01-.215.656 4.119 4.119 0 00-.218-.09l-.127-.045c.029-.035.085-.075.107-.127a.669.669 0 00.05-.243l.001-.01a.673.673 0 00-.035-.236.434.434 0 00-.108-.184.223.223 0 00-.156-.07H8.57a.228.228 0 00-.151.06.434.434 0 00-.122.175.676.676 0 00-.05.243v.01a.718.718 0 00.009.14 1.773 1.773 0 00-.354-.12 1.196 1.196 0 01-.01-.133v-.013a1.035 1.035 0 01.088-.447.793.793 0 01.25-.328.554.554 0 01.346-.123h.006c.125 0 .232.036.342.116a.78.78 0 01.257.324c.063.138.094.273.097.433l.001.012zM7.388 3.997a1.05 1.05 0 00-.277.125.623.623 0 00.002-.15v-.008a.651.651 0 00-.048-.192.37.37 0 00-.096-.141.158.158 0 00-.119-.045c-.042.004-.077.024-.11.065a.372.372 0 00-.07.156.626.626 0 00-.013.205v.008a.634.634 0 00.048.193.367.367 0 00.116.156l-.102.08-.078.056a.706.706 0 01-.16-.24c-.053-.12-.082-.24-.09-.381v-.001a1.071 1.071 0 01.045-.39.668.668 0 01.167-.292.359.359 0 01.264-.118c.084 0 .158.028.235.09a.68.68 0 01.199.271c.053.12.08.24.089.382v.001c.003.06.003.115-.002.17z"/><path fill="#202020" d="M7.806 4.335c.01.034.065.029.097.045.027.014.05.045.08.046.03.001.076-.01.08-.04.005-.038-.052-.063-.088-.077-.047-.019-.107-.028-.151-.003-.01.005-.021.018-.018.03zM7.484 4.335c-.01.034-.065.029-.096.045-.028.014-.05.045-.081.046-.03.001-.076-.01-.08-.04-.005-.038.052-.063.088-.077.047-.019.108-.028.152-.003.01.005.02.018.017.03z"/>
  </g>
  <text x="912" y="782" fill="#E5E5E5" font-size="20" font-family="SF Mono, Menlo, Monaco, Consolas, monospace">Linux</text>


  <!-- ====================== -->
  <!-- Row 3 -->
  <!-- ====================== -->
  <g transform="translate(40 815) scale(0.055)">
    <path fill="#007acc" d="M0 200V0h400v400H0"/>
    <path fill="#fff" d="M87.7 200.7V217h52v148h36.9V217h52v-16c0-9 0-16.3-.4-16.5 0-.3-31.7-.4-70.2-.4l-70 .3v16.4l-.3-.1zM321.4 184c10.2 2.4 18 7 25 14.3 3.7 4 9.2 11 9.6 12.8 0 .6-17.3 12.3-27.8 18.8-.4.3-2-1.4-3.6-4-5.2-7.4-10.5-10.6-18.8-11.2-12-.8-20 5.5-20 16 0 3.2.6 5 1.8 7.6 2.7 5.5 7.7 8.8 23.2 15.6 28.6 12.3 41 20.4 48.5 32 8.5 13 10.4 33.4 4.7 48.7-6.4 16.7-22 28-44.3 31.7-7 1.2-23 1-30.5-.3-16-3-31.3-11-40.7-21.3-3.7-4-10.8-14.7-10.4-15.4l3.8-2.4 15-8.7 11.3-6.6 2.6 3.5c3.3 5.2 10.7 12.2 15 14.6 13 6.7 30.4 5.8 39-2 3.7-3.4 5.3-7 5.3-12 0-4.6-.7-6.7-3-10.2-3.2-4.4-9.6-8-27.6-16-20.7-8.8-29.5-14.4-37.7-23-4.7-5.2-9-13.3-11-20-1.5-5.8-2-20-.6-25.7 4.3-20 19.4-34 41-38 7-1.4 23.5-.8 30.4 1l-.2.2z"/>
  </g>
  <text x="72" y="832" fill="#E5E5E5" font-size="20" font-family="SF Mono, Menlo, Monaco, Consolas, monospace">TypeScript</text>

  <g transform="translate(320 815) scale(0.6875)">
    <path d="M18.6789 15.9759C18.6789 14.5415 17.4796 13.3785 16 13.3785C14.5206 13.3785 13.3211 14.5415 13.3211 15.9759C13.3211 17.4105 14.5206 18.5734 16 18.5734C17.4796 18.5734 18.6789 17.4105 18.6789 15.9759Z" fill="#53C1DE"/>
    <path fill-rule="evenodd" clip-rule="evenodd" d="M24.7004 11.1537C25.2661 8.92478 25.9772 4.79148 23.4704 3.39016C20.9753 1.99495 17.7284 4.66843 16.0139 6.27318C14.3044 4.68442 10.9663 2.02237 8.46163 3.42814C5.96751 4.82803 6.73664 8.8928 7.3149 11.1357C4.98831 11.7764 1 13.1564 1 15.9759C1 18.7874 4.98416 20.2888 7.29698 20.9289C6.71658 23.1842 5.98596 27.1909 8.48327 28.5877C10.9973 29.9932 14.325 27.3945 16.0554 25.7722C17.7809 27.3864 20.9966 30.0021 23.4922 28.6014C25.9956 27.1963 25.3436 23.1184 24.7653 20.8625C27.0073 20.221 31 18.7523 31 15.9759C31 13.1835 26.9903 11.7923 24.7004 11.1537ZM24.4162 19.667C24.0365 18.5016 23.524 17.2623 22.8971 15.9821C23.4955 14.7321 23.9881 13.5088 24.3572 12.3509C26.0359 12.8228 29.7185 13.9013 29.7185 15.9759C29.7185 18.07 26.1846 19.1587 24.4162 19.667ZM22.85 27.526C20.988 28.571 18.2221 26.0696 16.9478 24.8809C17.7932 23.9844 18.638 22.9422 19.4625 21.7849C20.9129 21.6602 22.283 21.4562 23.5256 21.1777C23.9326 22.7734 24.7202 26.4763 22.85 27.526ZM9.12362 27.5111C7.26143 26.47 8.11258 22.8946 8.53957 21.2333C9.76834 21.4969 11.1286 21.6865 12.5824 21.8008C13.4123 22.9332 14.2816 23.9741 15.1576 24.8857C14.0753 25.9008 10.9945 28.557 9.12362 27.5111ZM2.28149 15.9759C2.28149 13.874 5.94207 12.8033 7.65904 12.3326C8.03451 13.5165 8.52695 14.7544 9.12123 16.0062C8.51925 17.2766 8.01977 18.5341 7.64085 19.732C6.00369 19.2776 2.28149 18.0791 2.28149 15.9759ZM9.1037 4.50354C10.9735 3.45416 13.8747 6.00983 15.1159 7.16013C14.2444 8.06754 13.3831 9.1006 12.5603 10.2265C11.1494 10.3533 9.79875 10.5569 8.55709 10.8297C8.09125 9.02071 7.23592 5.55179 9.1037 4.50354ZM20.3793 11.5771C21.3365 11.6942 22.2536 11.85 23.1147 12.0406C22.8562 12.844 22.534 13.6841 22.1545 14.5453C21.6044 13.5333 21.0139 12.5416 20.3793 11.5771ZM16.0143 8.0481C16.6054 8.66897 17.1974 9.3623 17.7798 10.1145C16.5985 10.0603 15.4153 10.0601 14.234 10.1137C14.8169 9.36848 15.414 8.67618 16.0143 8.0481ZM9.8565 14.5444C9.48329 13.6862 9.16398 12.8424 8.90322 12.0275C9.75918 11.8418 10.672 11.69 11.623 11.5748C10.9866 12.5372 10.3971 13.5285 9.8565 14.5444ZM11.6503 20.4657C10.6679 20.3594 9.74126 20.2153 8.88556 20.0347C9.15044 19.2055 9.47678 18.3435 9.85796 17.4668C10.406 18.4933 11.0045 19.4942 11.6503 20.4657ZM16.0498 23.9915C15.4424 23.356 14.8365 22.6531 14.2448 21.8971C15.4328 21.9423 16.6231 21.9424 17.811 21.891C17.2268 22.6608 16.6369 23.3647 16.0498 23.9915ZM22.1667 17.4222C22.5677 18.3084 22.9057 19.1657 23.1742 19.9809C22.3043 20.1734 21.3652 20.3284 20.3757 20.4435C21.015 19.4607 21.6149 18.4536 22.1667 17.4222ZM18.7473 20.5941C16.9301 20.72 15.1016 20.7186 13.2838 20.6044C12.2509 19.1415 11.3314 17.603 10.5377 16.0058C11.3276 14.4119 12.2404 12.8764 13.2684 11.4158C15.0875 11.2825 16.9178 11.2821 18.7369 11.4166C19.7561 12.8771 20.6675 14.4086 21.4757 15.9881C20.6771 17.5812 19.7595 19.1198 18.7473 20.5941ZM22.8303 4.4666C24.7006 5.51254 23.8681 9.22726 23.4595 10.8426C22.2149 10.5641 20.8633 10.3569 19.4483 10.2281C18.6239 9.09004 17.7698 8.05518 16.9124 7.15949C18.1695 5.98441 20.9781 3.43089 22.8303 4.4666Z" fill="#53C1DE"/>
  </g>
  <text x="352" y="832" fill="#E5E5E5" font-size="20" font-family="SF Mono, Menlo, Monaco, Consolas, monospace">React</text>

  <g transform="translate(600 815) scale(0.6875)">
    <path d="M16,30a2.151,2.151,0,0,1-1.076-.288L11.5,27.685c-.511-.286-.262-.387-.093-.446a6.828,6.828,0,0,0,1.549-.7.263.263,0,0,1,.255.019l2.631,1.563a.34.34,0,0,0,.318,0l10.26-5.922a.323.323,0,0,0,.157-.278V10.075a.331.331,0,0,0-.159-.283L16.158,3.875a.323.323,0,0,0-.317,0L5.587,9.794a.33.33,0,0,0-.162.281V21.916a.315.315,0,0,0,.161.274L8.4,23.814c1.525.762,2.459-.136,2.459-1.038V11.085a.3.3,0,0,1,.3-.3h1.3a.3.3,0,0,1,.3.3V22.777c0,2.035-1.108,3.2-3.038,3.2a4.389,4.389,0,0,1-2.363-.642L4.661,23.788a2.166,2.166,0,0,1-1.076-1.872V10.075A2.162,2.162,0,0,1,4.661,8.2L14.922,2.276a2.246,2.246,0,0,1,2.156,0L27.338,8.2a2.165,2.165,0,0,1,1.077,1.87V21.916a2.171,2.171,0,0,1-1.077,1.872l-10.26,5.924A2.152,2.152,0,0,1,16,30Z" fill="#83cd29"/>
    <path d="M14.054,17.953a.3.3,0,0,1,.3-.3h1.327a.3.3,0,0,1,.295.251c.2,1.351.8,2.032,3.513,2.032,2.161,0,3.082-.489,3.082-1.636,0-.661-.261-1.152-3.62-1.481-2.808-.278-4.544-.9-4.544-3.144,0-2.07,1.745-3.305,4.67-3.305,3.287,0,4.914,1.141,5.12,3.589a.3.3,0,0,1-.295.323H22.566a.3.3,0,0,1-.288-.232c-.319-1.421-1.1-1.875-3.2-1.875-2.36,0-2.634.822-2.634,1.438,0,.746.324.964,3.51,1.385,3.153.417,4.651,1.007,4.651,3.223,0,2.236-1.864,3.516-5.115,3.516C14.995,21.743,14.054,19.682,14.054,17.953Z" fill="#83cd29"/>
  </g>
  <text x="632" y="832" fill="#E5E5E5" font-size="20" font-family="SF Mono, Menlo, Monaco, Consolas, monospace">Node.js</text>

  <g transform="translate(880 815) scale(0.6875)">
    <path d="M19.513,25.173c-.068,0-.136,0-.2-.01C19.378,25.169,19.445,25.173,19.513,25.173Z" style="fill:none"/><path d="M18.919,25.087a1.93,1.93,0,0,0,.392.076A1.93,1.93,0,0,1,18.919,25.087Z" style="fill:none"/><path d="M20.091,27.511c-.021-.121-.043-.221-.064-.31h0c.021.089.043.189.064.31Z" style="fill:none"/><path d="M7.436,14.214A.832.832,0,0,1,7.6,14.1.581.581,0,0,0,7.436,14.214Z" style="fill:#f0d6b7"/><path d="M10.412,18.253c.06.421.24,4.164,2.766,6.25a15.465,15.465,0,0,0,1.549.162c.28-.6,1.312-.554,1.985-.4a6.648,6.648,0,0,1-2.176-1.778,4.466,4.466,0,0,1-1.472-2.656c1.348,1.87,2.462,3.5,4.913,4.326,1.855.622,4.021-.285,5.446-1.286a6.258,6.258,0,0,0,1.365-1.68,14.242,14.242,0,0,0,2.145-8.621,9.567,9.567,0,0,0-.5-3.446c-.453-.908-1.984-1.72-2.88-.9a1.07,1.07,0,0,1-.016-.246c-.143.134-.23.232-.23.232a1.209,1.209,0,0,1-.122-.487,1.551,1.551,0,0,1,1.5-1.5,8.674,8.674,0,0,0-1.479-1.563,10.49,10.49,0,0,0-6.047-.222,8.06,8.06,0,0,0-5.975,5.4,14.085,14.085,0,0,0-.388,2.263c-.031.884.416,1.655.45,2.617-.239.394-.969.443-1.474.416-.037-.187-.082-.379-.136-.566a5.158,5.158,0,0,0-1.265-.5,1.719,1.719,0,0,1,1.009,2.038c-.373-.213-.462-1.15-.9-1.177-.626-.038-.512,1.216-.509,1.95a2.291,2.291,0,0,1-.19-2.213c-.284-.139-.444.061-.6.217-.222,1.036-.547,1.873.062,2.92a1.734,1.734,0,0,0,1.414.6c.567-.056.706-.624,1.324-.618A.513.513,0,0,1,10.412,18.253ZM16.861,20.2l-.3-.061s-.314-1.1-.163-1.306c.08-.107.52-.268,1.136.028C17.53,18.862,16.8,18.984,16.861,20.2Zm5.706,1.341a5.27,5.27,0,0,1-3.426-.014A4.687,4.687,0,0,1,17.858,20.1c-.155-.2-.927-.708-.012-.709h0c.717,1.8,3.18,1.592,5.257,1.543A1.111,1.111,0,0,1,22.567,21.542Zm.3-1.6a4.016,4.016,0,0,1,0-1.063,8.538,8.538,0,0,0,2.96-1.185h0A3.425,3.425,0,0,1,22.866,19.939Zm2.756-8.073c-.183.061-1.37.762-1.278-.122a1.348,1.348,0,0,1,1.026-1.077,3.037,3.037,0,0,1,0-.4h0l.079,0a17.146,17.146,0,0,0,1.172,2.29c-.317.738-2.4,1.39-2.366.066.45-.2,1.227-.04,1.626-.291-.094-.257-.2-.5-.3-.756Zm-5.187,4.75a.719.719,0,0,1,.046.1c.091-.507.259-1.1.548-1.013a.684.684,0,0,1,.5.638,6.908,6.908,0,0,0-.948.738c.065.3.144.6.523.668,1.106.189,2.393-.677,3.189-.979.493-.832-.043-1.138-.487-1.673-.91-1.1-2.13-2.456-2.086-4.1.368-.267.4.407.452.53a15.006,15.006,0,0,0,2.543,3.486c.214.234.567.459.606.614.113.451-.294.991-.247,1.29h0a6.587,6.587,0,0,1-4.466,1.4A1.322,1.322,0,0,1,20.434,16.615Zm1.958,2.321A4.933,4.933,0,0,1,22.47,20c-1.811.09-3.952-.358-4.427-1.629A10.285,10.285,0,0,0,22.393,18.936Zm-4.256-8.648a6.954,6.954,0,0,0,.977,1.829c.228.222.67.492.451,1.109a1.406,1.406,0,0,1-.642.534c-.79.233-2.631.048-2.008-.937.653.03,1.532.424,2.02-.05-.095-.152-.209-.341-.322-.551-.5.316-1.874.33-1.874-.479,0-.852,1.339-1.034,1.339-1.034l.01.024A1.11,1.11,0,0,1,18.137,10.288ZM14.914,7.363c1.195-.815,1.8-.35,2.1.188a.568.568,0,0,1,.274.828c-1.658-.386-2.482.694-2.985,1.814-.129.234-.136.068-.21-.136a.392.392,0,0,1-.061-.136A.551.551,0,0,0,13.94,9.8C13.7,9.553,13.575,8.276,14.914,7.363Z" style="fill:#f0d6b7"/><path d="M6.283,29.28h8.753c-.04-.135-.079-.268-.118-.394a12.164,12.164,0,0,1-.476-1.948,21.079,21.079,0,0,1-3.087-1.655,2.353,2.353,0,0,1-.24-.257L5.849,27.379S6.038,28.133,6.283,29.28Z" style="fill:#335061"/><path d="M9.433,7A2.125,2.125,0,0,1,9.9,6.912a3.817,3.817,0,0,0,.747.029c.494-.123.912-1.231,1.285-1.644a11.333,11.333,0,0,1,.941-.776A7.346,7.346,0,0,0,9.433,7Z" style="fill:#6d6b6d"/><path d="M7.177,12.586a2.147,2.147,0,0,1,3.145,1.747c.694-.018.259-.866.134-1.413-.369-1.608.487-3.34.192-4.861C6.782,8.637,7,11.606,7.177,12.586Z" style="fill:#6d6b6d"/><path d="M13.249,3.851c-1.82.516-4.152,1.838-4.9,3.473A7.389,7.389,0,0,0,9.433,7a7.346,7.346,0,0,1,3.44-2.479,1.647,1.647,0,0,0,.159-.166c.192-.093.476-.086.487-.375C13.436,3.891,13.348,3.823,13.249,3.851Z" style="fill:#dcd9d8"/><path d="M7.5,8.985c-.8.885-.636,2.542-.538,3.721a2.321,2.321,0,0,1,.218-.12c-.18-.979-.394-3.949,3.471-4.527a2.81,2.81,0,0,0-.142-.493A4.409,4.409,0,0,0,7.5,8.985Z" style="fill:#dcd9d8"/><path d="M10.412,18.253a.513.513,0,0,0-.42-.468c.335.668-.516.878-.6,1.355a3.837,3.837,0,0,0,.125.832,11.351,11.351,0,0,0,1.445,3.365,3.181,3.181,0,0,0,2.22,1.166C10.652,22.418,10.472,18.674,10.412,18.253Z" style="fill:#f7e4cd"/><path d="M21.525,16.338a.684.684,0,0,0-.5-.638c-.289-.082-.457.506-.548,1.013a2.376,2.376,0,0,1,.1.363A6.908,6.908,0,0,1,21.525,16.338Z" style="fill:#f7e4cd"/><path d="M24.344,11.744c-.092.884,1.1.183,1.278.122l-.043-.286a3.235,3.235,0,0,1-.209-.913A1.348,1.348,0,0,0,24.344,11.744Z" style="fill:#f7e4cd"/><path d="M16.739,11.744c0,.809,1.371.795,1.874.479a4.053,4.053,0,0,1-.525-1.489l-.01-.024S16.739,10.892,16.739,11.744Z" style="fill:#f7e4cd"/><path d="M7.192,14.885a.8.8,0,0,1-.125.109,1.221,1.221,0,0,1,.37-.781A.581.581,0,0,1,7.6,14.1a.979.979,0,0,1,.782-.032,5.158,5.158,0,0,1,1.265.5c-.193-.664-.524-1.263-1.208-1.338a2.034,2.034,0,0,0-2.2,1.963A3.858,3.858,0,0,0,7.254,17.8C6.644,16.758,6.97,15.921,7.192,14.885Z" style="fill:#f7e4cd"/><path d="M17.165,4.443a10.49,10.49,0,0,1,6.047.222,4.127,4.127,0,0,0-.49-.329c-1.889-1.066-5.086-1.867-7.1-.866-1.621.808-3.813,2.146-4.56,3.841a4.109,4.109,0,0,1,.123,2.532A8.06,8.06,0,0,1,17.165,4.443Z" style="fill:#f7e4cd"/><path d="M23.188,7.728a1.209,1.209,0,0,0,.122.487s.087-.1.23-.232c.031-.734.865-1.152,1.832-.866-.222-.286-.447-.589-.681-.889A1.551,1.551,0,0,0,23.188,7.728Z" style="fill:#f7e4cd"/><path d="M14.092,10.058c.074.2.082.37.21.136A.348.348,0,0,1,14.092,10.058Z" style="fill:#f7e4cd"/><path d="M14.032,9.922a1.486,1.486,0,0,1,.114-.758,2.816,2.816,0,0,1,2.47-1.755,1.149,1.149,0,0,1,.4.143c-.3-.538-.9-1-2.1-.188-1.338.913-1.217,2.19-.973,2.434A.551.551,0,0,1,14.032,9.922Z" style="fill:#f7e4cd"/><path d="M5.849,27.379l5.266-2.353c-.386-.448-1.079-1.3-1.2-1.257a24.079,24.079,0,0,0-5.61,3.485,20.236,20.236,0,0,1,.81,2.026H6.283C6.038,28.133,5.849,27.379,5.849,27.379Z" style="fill:#49728b"/><path d="M27,29.307a20.836,20.836,0,0,0,.548-2.058c.036-.181.106-.475.156-.756l-2.886-2.144a5.123,5.123,0,0,1,.13,3.9c.1.372.454.515.6.85-.034.06-.068.119-.1.179h1.476A.149.149,0,0,1,27,29.307Z" style="fill:#335061"/><path d="M24.441,28.074a1.081,1.081,0,0,0,.172-.381,1.081,1.081,0,0,1-.172.381Z" style="fill:#335061"/><path d="M23.617,23.946a.948.948,0,0,1,.514-.106l-.238-.177A1.457,1.457,0,0,0,23.617,23.946Z" style="fill:#335061"/><path d="M27.756,25.879c-.074-.537-.8-.935-1.172-1.266C25.9,24,25.472,23.46,24.761,22.887a4.391,4.391,0,0,1-.869.776l.238.177a.932.932,0,0,1,.686.51L27.7,26.493A2.339,2.339,0,0,0,27.756,25.879Z" style="fill:#49728b"/><path d="M20.572,29.2a.438.438,0,0,0,.009.076h.479a.333.333,0,0,1,.666,0H22.5v-.03c-.274-.144-.873-.455-1.2-.593C20.876,28.475,20.572,29.2,20.572,29.2Z" style="fill:#fff"/><path d="M20.572,29.2s.3-.73.73-.548c.322.138.921.449,1.2.593.01-.22.02-.44.034-.66-.618.039-.961-.559-1.394-.605-.378-.041-.7.435-1.19.229-.113.124-.215.259-.33.381a6.313,6.313,0,0,1,.489.685h.476A.438.438,0,0,1,20.572,29.2Z" style="fill:#dcd9d8"/><path d="M14.511,25.169a6.738,6.738,0,0,1-2.269-.4.282.282,0,0,0,.017.421,7.657,7.657,0,0,0,2.14.578A1.748,1.748,0,0,0,14.511,25.169Z" style="fill:#fff"/><path d="M14.357,26.069a1.233,1.233,0,0,1,.041-.3,7.657,7.657,0,0,1-2.14-.578A4.237,4.237,0,0,0,14.357,26.069Z" style="fill:#dcd9d8"/><path d="M24.613,27.693a2.963,2.963,0,0,0,.073-.87,7.057,7.057,0,0,0-.2-1.378,3,3,0,0,0-1.009.049c-.3.061-.609.122-.669.487s.122.548-.061.852-.487.122-.791.3c-.207.124-.076.445.029.638a12.138,12.138,0,0,0,2.459.3A1.081,1.081,0,0,0,24.613,27.693Z" style="fill:#d33833"/><path d="M15.562,29.219c.016.043.033.088.047.128s.029.093.042.139l-.009-.117Z" style="fill:#d33833"/><path d="M19.563,27.925q.01-.264.021-.527a1.309,1.309,0,0,1-.96-.074c-.937-.511-.05-.36-.382-1.038a3.236,3.236,0,0,0-1.224-.365c-1.228,0-1.7-.247-1.568,1.169.069.76.131,1.519.191,2.28.1.188.19.357.262.5a4.834,4.834,0,0,0,1.833-.559A21.007,21.007,0,0,0,19.563,27.925Z" style="fill:#d33833"/><path d="M20.027,27.2c.021.089.043.189.064.31h0a.7.7,0,1,0,.428-1.31A.953.953,0,0,1,20.027,27.2Z" style="fill:#d33833"/><path d="M21.953,27.137c.3-.183.609,0,.791-.3s0-.487.061-.852.365-.426.669-.487a3,3,0,0,1,1.009-.049,1.125,1.125,0,0,0-.348-.652c-.747-.436-2.056.825-2.665,1.093l-.057.023a1.694,1.694,0,0,1,.175.558A1.475,1.475,0,0,1,22,26.429a1.761,1.761,0,0,1,.276.033c.045.009.089.02.133.032a1.463,1.463,0,0,1,.243.092,4.209,4.209,0,0,0-.757.1.7.7,0,0,0-.2.095,8.618,8.618,0,0,0-.035.9q.158.045.322.084C21.877,27.582,21.746,27.261,21.953,27.137Z" style="fill:#ef3d3a"/><path d="M15.651,29.485c.051.183.095.348.253.385-.072-.144-.163-.313-.262-.5Z" style="fill:#ef3d3a"/><path d="M15.45,27.089c-.129-1.416.34-1.169,1.568-1.169a3.236,3.236,0,0,1,1.224.365c.332.678-.555.527.382,1.038a1.309,1.309,0,0,0,.96.074l0-.063a3.039,3.039,0,0,0-.916-.29,3.5,3.5,0,0,0-.371-.036,1.555,1.555,0,0,1,.291-.106,3.285,3.285,0,0,0,.906-.281c0-.079.006-.158.009-.236a1.883,1.883,0,0,1-.2-.027,1.565,1.565,0,0,1-.177-.044,1.585,1.585,0,0,1-.294-.127c-.178-.1-.331-.216-.525-.322a9.077,9.077,0,0,0-2.408-.881c-.921-.176-.929,1.105-.89,2.049,0,.1.008.192.013.28a6.585,6.585,0,0,0,.544,1.9l.079.15C15.582,28.609,15.519,27.849,15.45,27.089Z" style="fill:#ef3d3a"/><path d="M20.52,26.2a1.009,1.009,0,0,0-.582.2,1.7,1.7,0,0,0,.007.412c.011.079.028.155.048.238l.031.131,0,.017h0A.953.953,0,0,0,20.52,26.2Z" style="fill:#ef3d3a"/><path d="M14.146,9.164a1.486,1.486,0,0,0-.114.758.392.392,0,0,0,.061.136.348.348,0,0,0,.21.136c.5-1.12,1.327-2.2,2.985-1.814a.568.568,0,0,0-.274-.828,1.149,1.149,0,0,0-.4-.143A2.816,2.816,0,0,0,14.146,9.164Z" style="fill:#231f20"/><path d="M24.252,12.627c-.032,1.324,2.049.672,2.366-.066a17.146,17.146,0,0,1-1.172-2.29l-.079,0h0a3.037,3.037,0,0,0,0,.4,3.235,3.235,0,0,0,.209.913c.095.256.205.5.3.756C25.479,12.587,24.7,12.43,24.252,12.627Z" style="fill:#231f20"/><path d="M18.934,12.773c-.488.474-1.367.08-2.02.05-.623.985,1.218,1.17,2.008.937a1.406,1.406,0,0,0,.642-.534c.219-.617-.223-.887-.451-1.109a6.954,6.954,0,0,1-.977-1.829,1.11,1.11,0,0,0-.049.445,4.053,4.053,0,0,0,.525,1.489C18.726,12.432,18.839,12.621,18.934,12.773Z" style="fill:#231f20"/><path d="M20.605,18.315a6.587,6.587,0,0,0,4.466-1.4h0c-.047-.3.36-.84.247-1.29-.039-.155-.392-.38-.606-.614a15.006,15.006,0,0,1-2.543-3.486c-.053-.123-.085-.8-.452-.53-.044,1.642,1.176,3,2.086,4.1.444.535.98.841.487,1.673-.8.3-2.083,1.169-3.189.979-.379-.065-.458-.365-.523-.668a2.376,2.376,0,0,0-.1-.363.719.719,0,0,0-.046-.1A1.322,1.322,0,0,0,20.605,18.315Z" style="fill:#231f20"/><path d="M7.6,14.1a.832.832,0,0,0-.159.111,1.221,1.221,0,0,0-.37.781.8.8,0,0,0,.125-.109c.153-.156.313-.357.6-.217a2.291,2.291,0,0,0,.19,2.213c0-.733-.117-1.987.509-1.95.438.027.527.964.9,1.177A1.719,1.719,0,0,0,8.378,14.07.979.979,0,0,0,7.6,14.1Z" style="fill:#231f20"/><path d="M22.868,18.875a4.016,4.016,0,0,0,0,1.063,3.425,3.425,0,0,0,2.962-2.249h0A8.538,8.538,0,0,1,22.868,18.875Z" style="fill:#231f20"/><path d="M22.47,20a4.933,4.933,0,0,0-.077-1.066,10.285,10.285,0,0,1-4.35-.562C18.518,19.644,20.659,20.092,22.47,20Z" style="fill:#231f20"/><path d="M17.846,19.39h0c-.915,0-.143.51.012.709a4.687,4.687,0,0,0,1.284,1.428,5.27,5.27,0,0,0,3.426.014,1.111,1.111,0,0,0,.536-.609C21.026,20.982,18.563,21.189,17.846,19.39Z" style="fill:#231f20"/><path d="M24.96,29.28a1.709,1.709,0,0,0-1.042-.753,1.433,1.433,0,0,0-.918.12c-.008.2-.018.415-.031.632Z" style="fill:#81b0c4"/><path d="M21.971,24.749c-.686.061-1.493.373-2.252.419-.069,0-.138.006-.206.006s-.136,0-.2-.01a1.93,1.93,0,0,1-.392-.076,1.666,1.666,0,0,1-.188-.07c0,.052-.071.033-.082.076.085.066.167.126.247.179s.159.1.238.143a2.218,2.218,0,0,0,.475.19,3.052,3.052,0,0,0,.816.09c.1,0,.212,0,.327-.009C21.169,25.384,21.537,25.031,21.971,24.749Z" style="fill:#f0d6b7"/><path d="M19.086,29.048l-.351.233h.527Q19.176,29.162,19.086,29.048Z" style="fill:#81b0c4"/><path d="M4.681,29.769v-.335a.153.153,0,0,1,.153-.153h.283a20.236,20.236,0,0,0-.81-2.026,24.079,24.079,0,0,1,5.61-3.485c.118-.047.811.809,1.2,1.257a2.353,2.353,0,0,0,.24.257,21.079,21.079,0,0,0,3.087,1.655,12.164,12.164,0,0,0,.476,1.948c.039.126.078.26.118.394H15.2a.153.153,0,0,1,.153.153v.158h.139a.153.153,0,0,1,.153.153V30h1.691v-.255a.153.153,0,0,1,.153-.153h.78v-.158a.153.153,0,0,1,.153-.153h.317l.351-.233q.09.114.176.233h.843a6.313,6.313,0,0,0-.489-.685c.115-.122.217-.256.33-.381.492.206.812-.27,1.19-.229.433.046.776.644,1.394.605-.014.22-.024.44-.034.66v.03h.474c.012-.217.023-.429.031-.632a1.433,1.433,0,0,1,.918-.12,1.709,1.709,0,0,1,1.042.753h.481c.034-.06.069-.119.1-.179-.143-.335-.495-.477-.6-.85a5.123,5.123,0,0,0-.13-3.9.932.932,0,0,0-.686-.51.948.948,0,0,0-.514.106,1.457,1.457,0,0,1,.275-.283,4.391,4.391,0,0,0,.869-.776c.712.573,1.141,1.112,1.824,1.725.37.332,1.1.73,1.172,1.266a2.339,2.339,0,0,1-.054.614c-.051.281-.12.575-.156.756A20.836,20.836,0,0,1,27,29.307a.15.15,0,0,1,.072.127V30h.368c.258-.808.511-1.635.766-2.489a6.207,6.207,0,0,0,.478-2.187c-.078-.617-1.04-1.265-1.547-1.754-.281-.271-1.593-1.267-1.669-1.64s.535-1.178.731-1.586a11.669,11.669,0,0,0,.621-1.788c1.032-3.627,1.137-8.611-.339-11.592a12.54,12.54,0,0,0-3.1-3.428c-2.3-1.742-6.563-1.935-9.339-.913a13.481,13.481,0,0,0-2.2.939C10.024,4.628,8.094,5.342,7.555,7.49c-1.328.6-1.729,2.3-1.662,4.268a6.221,6.221,0,0,1,.149,1.227c-.037.184-.286.419-.336.538a5.3,5.3,0,0,0,.609,4.592A3.225,3.225,0,0,0,8.468,19.5a4.568,4.568,0,0,0,.447,1.672c.17.373.805,1.043.571,1.519a6.987,6.987,0,0,1-1.495.966c-1.158.695-2,1.12-3.066,1.89-.692.5-1.773.562-1.6,1.71a17.869,17.869,0,0,0,.808,2.513c.025.078.053.155.08.232h.47ZM13.032,4.355a1.647,1.647,0,0,1-.159.166,11.333,11.333,0,0,0-.941.776c-.373.413-.79,1.521-1.285,1.644A3.817,3.817,0,0,1,9.9,6.912,2.125,2.125,0,0,0,9.433,7a7.389,7.389,0,0,1-1.084.325c.748-1.635,3.08-2.957,4.9-3.473.1-.028.188.04.271.129C13.509,4.268,13.224,4.262,13.032,4.355Zm-2.385,3.7c.3,1.521-.561,3.254-.192,4.861.125.546.56,1.394-.134,1.413a2.147,2.147,0,0,0-3.145-1.747,2.321,2.321,0,0,0-.218.12c-.1-1.179-.266-2.836.538-3.721a4.409,4.409,0,0,1,3.009-1.419A2.81,2.81,0,0,1,10.647,8.059ZM7.254,17.8A3.858,3.858,0,0,1,6.232,15.2a2.034,2.034,0,0,1,2.2-1.963c.684.075,1.014.674,1.208,1.338.054.187.1.379.136.566.505.027,1.235-.022,1.474-.416-.034-.962-.481-1.733-.45-2.617a14.085,14.085,0,0,1,.388-2.263,4.109,4.109,0,0,0-.123-2.532c.747-1.695,2.939-3.032,4.56-3.841,2.009-1,5.207-.2,7.1.866a4.127,4.127,0,0,1,.49.329,8.674,8.674,0,0,1,1.479,1.563c.234.3.459.6.681.889-.967-.287-1.8.132-1.832.866a1.07,1.07,0,0,0,.016.246c.9-.821,2.427-.009,2.88.9a9.567,9.567,0,0,1,.5,3.446,14.242,14.242,0,0,1-2.145,8.621,6.258,6.258,0,0,1-1.365,1.68c-1.425,1-3.591,1.908-5.446,1.286-2.451-.823-3.565-2.456-4.913-4.326a4.466,4.466,0,0,0,1.472,2.656,6.648,6.648,0,0,0,2.176,1.778c-.673-.158-1.7-.208-1.985.4a15.465,15.465,0,0,1-1.549-.162,3.181,3.181,0,0,1-2.22-1.166,11.351,11.351,0,0,1-1.445-3.365,3.837,3.837,0,0,1-.125-.832c.088-.478.939-.687.6-1.355-.618-.006-.757.562-1.324.618A1.734,1.734,0,0,1,7.254,17.8Zm12.77,9.38-.031-.131c-.02-.083-.036-.159-.048-.238a1.7,1.7,0,0,1-.007-.412,1.009,1.009,0,0,1,.582-.2.7.7,0,1,1-.428,1.31c-.021-.121-.043-.221-.064-.31Zm-7.782-2.419a6.738,6.738,0,0,0,2.269.4,1.748,1.748,0,0,1-.112.6,1.233,1.233,0,0,0-.041.3,4.237,4.237,0,0,1-2.1-.882A.282.282,0,0,1,12.242,24.766Zm7.367.839a2.218,2.218,0,0,1-.475-.19c-.078-.042-.157-.09-.238-.143s-.162-.113-.247-.179c.011-.043.079-.024.082-.076a1.666,1.666,0,0,0,.188.07,1.93,1.93,0,0,0,.392.076c.067.006.134.009.2.01s.137,0,.206-.006c.759-.046,1.566-.358,2.252-.419-.433.283-.8.636-1.218.938-.115.006-.224.009-.327.009A3.052,3.052,0,0,1,19.609,25.605Zm-1.872,3.706a4.834,4.834,0,0,1-1.833.559c-.158-.037-.2-.2-.253-.385-.013-.046-.026-.092-.042-.139s-.03-.085-.047-.128a6.585,6.585,0,0,1-.544-1.9c0-.088-.009-.182-.013-.28-.039-.944-.031-2.225.89-2.049a9.077,9.077,0,0,1,2.408.881c.194.106.347.225.525.322a1.585,1.585,0,0,0,.294.127,1.565,1.565,0,0,0,.177.044,1.883,1.883,0,0,0,.2.027c0,.078-.006.157-.009.236a3.285,3.285,0,0,1-.906.281,1.555,1.555,0,0,0-.291.106,3.5,3.5,0,0,1,.371.036,3.039,3.039,0,0,1,.916.29l0,.063q-.01.264-.021.527A21.007,21.007,0,0,1,17.737,29.311Zm4.245-1.536q-.164-.039-.322-.084a8.618,8.618,0,0,1,.035-.9.7.7,0,0,1,.2-.095,4.209,4.209,0,0,1,.757-.1,1.463,1.463,0,0,0-.243-.092c-.043-.012-.088-.023-.133-.032A1.761,1.761,0,0,0,22,26.429a1.475,1.475,0,0,0-.407.038,1.694,1.694,0,0,0-.175-.558l.057-.023c.609-.268,1.918-1.529,2.665-1.093a1.125,1.125,0,0,1,.348.652,7.057,7.057,0,0,1,.2,1.378,2.963,2.963,0,0,1-.073.87,1.081,1.081,0,0,1-.172.381h0A12.138,12.138,0,0,1,21.982,27.774Z" style="fill:#231f20"/><path d="M17.53,18.862c-.616-.3-1.056-.135-1.136-.028-.152.2.163,1.306.163,1.306l.3.061C16.8,18.984,17.53,18.862,17.53,18.862Z" style="fill:#f7e4cd"/><path d="M21.393,28.961a.334.334,0,0,0-.333.319h.666A.334.334,0,0,0,21.393,28.961Z" style="fill:#1d1919"/><path d="M15.642,29.745a.153.153,0,0,0-.153-.153h-.139v.177a.153.153,0,0,1-.153.153H4.834a.153.153,0,0,1-.153-.153V30H15.642Z" style="fill:#231f20"/><path d="M26.918,29.922h-8.5a.153.153,0,0,1-.153-.153v-.177h-.78a.153.153,0,0,0-.153.153V30h9.737v-.231A.153.153,0,0,1,26.918,29.922Z" style="fill:#231f20"/><path d="M4.834,29.922H15.2a.153.153,0,0,0,.153-.153v-.335a.153.153,0,0,0-.153-.153H4.834a.153.153,0,0,0-.153.153v.335A.153.153,0,0,0,4.834,29.922Z" style="fill:#231f20"/><path d="M18.266,29.769a.153.153,0,0,0,.153.153h8.5a.153.153,0,0,0,.153-.153v-.335A.15.15,0,0,0,27,29.307a.149.149,0,0,0-.081-.026h-8.5a.153.153,0,0,0-.153.153v.335Z" style="fill:#231f20"/>
  </g>
  <text x="912" y="832" fill="#E5E5E5" font-size="20" font-family="SF Mono, Menlo, Monaco, Consolas, monospace">Jenkins</text>


  <!-- ====================== -->
  <!-- Row 4 -->
  <!-- ====================== -->

  <g transform="translate(40 861) scale(0.875)">
    <defs><radialGradient id="a" cx="-16.114" cy="20.532" r="18.384" gradientTransform="translate(26.52 -9.307)" gradientUnits="userSpaceOnUse"><stop offset="0" stop-color="#ffffff"/><stop offset="0.5" stop-color="#4c6b96"/><stop offset="1" stop-color="#231f20"/></radialGradient></defs><title>file_type_php</title><ellipse cx="16" cy="16" rx="14" ry="7.365" style="fill:url(#a)"/><ellipse cx="16" cy="16" rx="13.453" ry="6.818" style="fill:#6280b6"/><path d="M18.725,18.2l.667-3.434a1.752,1.752,0,0,0-.372-1.719,2.929,2.929,0,0,0-2-.525H15.867l.331-1.7a.219.219,0,0,0-.215-.26h-1.6a.219.219,0,0,0-.215.177l-.709,3.646a2.051,2.051,0,0,0-.477-1.054,2.783,2.783,0,0,0-2.2-.807H7.7a.219.219,0,0,0-.215.177l-1.434,7.38a.219.219,0,0,0,.215.26H7.869a.219.219,0,0,0,.215-.177l.347-1.785h1.2a5.167,5.167,0,0,0,1.568-.2,3.068,3.068,0,0,0,1.15-.689,3.538,3.538,0,0,0,.68-.844l-.287,1.475a.219.219,0,0,0,.215.26h1.6a.219.219,0,0,0,.215-.177l.787-4.051h1.094c.466,0,.6.093.64.133s.1.165.025.569l-.635,3.265a.219.219,0,0,0,.215.26h1.62A.219.219,0,0,0,18.725,18.2ZM11.33,15.366a1.749,1.749,0,0,1-.561,1.092,2.171,2.171,0,0,1-1.315.321H8.742l.515-2.651h.921c.677,0,.949.145,1.059.266A1.181,1.181,0,0,1,11.33,15.366Z" style="fill:#fff"/><path d="M25.546,13.332a2.783,2.783,0,0,0-2.2-.807H20.255a.219.219,0,0,0-.215.177l-1.434,7.38a.219.219,0,0,0,.215.26h1.608a.219.219,0,0,0,.215-.177l.347-1.785h1.2a5.167,5.167,0,0,0,1.568-.2,3.068,3.068,0,0,0,1.15-.689,3.425,3.425,0,0,0,1.076-1.927A2.512,2.512,0,0,0,25.546,13.332Zm-1.667,2.034a1.749,1.749,0,0,1-.561,1.092A2.171,2.171,0,0,1,22,16.778H21.29l.515-2.651h.921c.677,0,.949.145,1.059.266A1.181,1.181,0,0,1,23.879,15.366Z" style="fill:#fff"/><path d="M10.178,13.908a1.645,1.645,0,0,1,1.221.338,1.34,1.34,0,0,1,.145,1.161,1.945,1.945,0,0,1-.642,1.223A2.361,2.361,0,0,1,9.454,17H8.476l.6-3.089ZM6.261,20.124H7.869l.381-1.962H9.627a4.931,4.931,0,0,0,1.5-.191,2.84,2.84,0,0,0,1.07-.642,3.207,3.207,0,0,0,1.01-1.808,2.3,2.3,0,0,0-.385-2.044,2.568,2.568,0,0,0-2.035-.732H7.7Z" style="fill:#000004"/><path d="M14.387,10.782h1.6L15.6,12.744h1.421a2.767,2.767,0,0,1,1.85.468,1.548,1.548,0,0,1,.305,1.516l-.667,3.434H16.89l.635-3.265a.886.886,0,0,0-.08-.76,1.121,1.121,0,0,0-.8-.2H15.37l-.822,4.228h-1.6Z" style="fill:#000004"/><path d="M22.727,13.908a1.645,1.645,0,0,1,1.221.338,1.34,1.34,0,0,1,.145,1.161,1.945,1.945,0,0,1-.642,1.223A2.361,2.361,0,0,1,22,17h-.978l.6-3.089ZM18.81,20.124h1.608l.381-1.962h1.377a4.931,4.931,0,0,0,1.5-.191,2.84,2.84,0,0,0,1.07-.642,3.207,3.207,0,0,0,1.01-1.808,2.3,2.3,0,0,0-.385-2.044,2.568,2.568,0,0,0-2.035-.732H20.244Z" style="fill:#000004"/>
    </g>
    <text x="72" y="882" fill="#E5E5E5" font-size="20" font-family="SF Mono, Menlo, Monaco, Consolas, monospace">PHP</text>

    <g transform="translate(320 865) scale(0.9167)">
    <g clip-path="url(#clip0)">
      <path d="M11.2141 0.00645944C11.1625 0.0111515 10.9982 0.0275738 10.8504 0.039304C7.44164 0.346635 4.24868 2.18593 2.22639 5.01291C1.10029 6.58476 0.380059 8.36775 0.107918 10.2563C0.0117302 10.9156 0 11.1103 0 12.0041C0 12.898 0.0117302 13.0927 0.107918 13.7519C0.760117 18.2587 3.96716 22.0452 8.31672 23.4481C9.0956 23.6991 9.91672 23.8704 10.8504 23.9736C11.2141 24.0135 12.7859 24.0135 13.1496 23.9736C14.7613 23.7953 16.1267 23.3965 17.4733 22.7091C17.6798 22.6035 17.7196 22.5754 17.6915 22.5519C17.6727 22.5378 16.793 21.3578 15.7372 19.9314L13.8182 17.339L11.4135 13.7801C10.0903 11.8235 9.00176 10.2235 8.99238 10.2235C8.98299 10.2211 8.97361 11.8024 8.96891 13.7331C8.96188 17.1138 8.95953 17.2499 8.9173 17.3296C8.85631 17.4446 8.80938 17.4915 8.71085 17.5431C8.63578 17.5807 8.57009 17.5877 8.21584 17.5877H7.80997L7.70205 17.5197C7.63167 17.4751 7.58006 17.4164 7.54487 17.3484L7.4956 17.2428L7.50029 12.539L7.50733 7.83285L7.58006 7.74136C7.6176 7.69209 7.69736 7.62875 7.75367 7.59825C7.84985 7.55133 7.88739 7.54664 8.29325 7.54664C8.77185 7.54664 8.85161 7.5654 8.97595 7.70147C9.01114 7.73901 10.3132 9.7003 11.871 12.0628C13.4287 14.4252 15.5589 17.651 16.6053 19.2346L18.5056 22.1132L18.6018 22.0499C19.4534 21.4962 20.3543 20.7079 21.0674 19.8868C22.5853 18.1437 23.5636 16.0182 23.8921 13.7519C23.9883 13.0927 24 12.898 24 12.0041C24 11.1103 23.9883 10.9156 23.8921 10.2563C23.2399 5.74957 20.0328 1.96306 15.6833 0.560125C14.9161 0.311445 14.0997 0.140184 13.1848 0.036958C12.9595 0.0134976 11.4088 -0.0123089 11.2141 0.00645944ZM16.1267 7.26511C16.2393 7.32142 16.3308 7.42933 16.3636 7.54194C16.3824 7.60294 16.3871 8.90734 16.3824 11.8469L16.3754 16.0651L15.6317 14.9249L14.8856 13.7848V10.7185C14.8856 8.73608 14.895 7.62171 14.9091 7.56775C14.9466 7.43637 15.0287 7.33315 15.1413 7.27215C15.2375 7.22288 15.2727 7.21819 15.6411 7.21819C15.9883 7.21819 16.0493 7.22288 16.1267 7.26511Z"
      fill="#000000"/>
    </g>

    <defs>
      <clipPath id="clip0">
        <rect width="24" height="24" fill="white"/>
      </clipPath>
    </defs>
  </g>
  <text x="352" y="882" fill="#E5E5E5" font-size="20" font-family="SF Mono, Menlo, Monaco, Consolas, monospace">Next.js</text>

  <g transform="translate(600 865) scale(0.687)">
    <defs>
      <linearGradient id="paint0_linear_87_8173" x1="0.360663" y1="18.3262" x2="15.2301" y2="18.3262" gradientUnits="userSpaceOnUse">
        <stop offset="0.258" stop-color="#F97A12"/>
        <stop offset="0.459" stop-color="#B07B58"/>
        <stop offset="0.724" stop-color="#577BAE"/>
        <stop offset="0.91" stop-color="#1E7CE5"/>
        <stop offset="1" stop-color="#087CFA"/>
      </linearGradient>

      <linearGradient id="paint1_linear_87_8173" x1="11.7795" y1="11.3738" x2="36.3084" y2="24.9464" gradientUnits="userSpaceOnUse">
        <stop stop-color="#F97A12"/>
        <stop offset="0.432" stop-color="#387CCC"/>
        <stop offset="1" stop-color="#087CFA"/>
      </linearGradient>

      <linearGradient id="paint2_linear_87_8173" x1="28.9046" y1="19.6184" x2="22.0758" y2="-0.785756" gradientUnits="userSpaceOnUse">
        <stop stop-color="#FE315D"/>
        <stop offset="0.541" stop-color="#2374E9"/>
        <stop offset="1" stop-color="#087CFA"/>
      </linearGradient>

      <linearGradient id="paint3_linear_87_8173" x1="4.90057" y1="7.53051" x2="25.3824" y2="41.408" gradientUnits="userSpaceOnUse">
        <stop stop-color="#FE315D"/>
        <stop offset="0.55" stop-color="#755BB4"/>
        <stop offset="1" stop-color="#087CFA"/>
      </linearGradient>

      <clipPath id="clip0_87_8173">
        <rect width="32" height="32"/>
      </clipPath>
    </defs>

    <g clip-path="url(#clip0_87_8173)">
      <path d="M8.09095 24.9598L0.365234 18.8341L4.20523 11.7026L15.2224 15.9998L8.09095 24.9598Z" fill="url(#paint0_linear_87_8173)"/>
      <path d="M32.0003 8.54864L31.406 27.0629L19.1088 32.0001L11.7031 27.2458L22.5374 16.0001L17.7831 5.62293L22.0346 0.50293L32.0003 8.54864Z" fill="url(#paint1_linear_87_8173)"/>
      <path d="M32.0003 8.54864L22.2632 20.0686L17.7832 5.62293L22.0346 0.50293L32.0003 8.54864Z" fill="url(#paint2_linear_87_8173)"/>
      <path d="M15.4057 26.56L2.56 31.2229L4.61714 24L7.31429 15.1314L0 12.6629L4.61714 0L14.6743 1.23429L24.5486 12.5257L15.4057 26.56Z" fill="url(#paint3_linear_87_8173)"/>
      <path d="M6.2627 6.17139H26.0113V25.92H6.2627V6.17139Z" fill="#000000"/>
      <path d="M8.0918 22.2173H15.4975V23.4516H8.0918V22.2173Z" fill="white"/>
      <path d="M13.4395 10.24V8.73145H9.3252V10.24H10.5138V15.4057H9.3252V16.9143H13.4395V15.4057H12.2966V10.24H13.4395Z" fill="white"/>
      <path d="M17.3712 17.0514C16.7312 17.0514 16.1826 16.9143 15.7712 16.6857C15.3597 16.4572 14.994 16.1372 14.7197 15.8172L15.8626 14.5372C16.0912 14.8114 16.3197 14.9943 16.5483 15.1314C16.7769 15.2686 17.0512 15.36 17.3254 15.36C17.6454 15.36 17.9197 15.2686 18.1483 15.04C18.3312 14.8114 18.4226 14.4914 18.4226 13.9886V8.73145H20.2512V14.08C20.2512 14.5829 20.2054 14.9943 20.0683 15.36C19.9312 15.7257 19.7483 16 19.474 16.2743C19.2454 16.5029 18.9254 16.7314 18.5597 16.8229C18.194 16.96 17.8283 17.0514 17.3712 17.0514Z" fill="white"/>
    </g>
  </g>
  <text x="632" y="882" fill="#E5E5E5" font-size="20" font-family="SF Mono, Menlo, Monaco, Consolas, monospace">IntelliJ IDEA</text>

  <g transform="translate(880 864) scale(0.72)">
    <path d="M29.01,5.03,23.244,2.254a1.742,1.742,0,0,0-1.989.338L2.38,19.8A1.166,1.166,0,0,0,2.3,21.447c.025.027.05.053.077.077l1.541,1.4a1.165,1.165,0,0,0,1.489.066L28.142,5.75A1.158,1.158,0,0,1,30,6.672V6.605A1.748,1.748,0,0,0,29.01,5.03Z" fill="#0065a9"/>
    <path d="M29.01,26.97l-5.766,2.777a1.745,1.745,0,0,1-1.989-.338L2.38,12.2A1.166,1.166,0,0,1,2.3,10.553c.025-.027.05-.053.077-.077l1.541-1.4A1.165,1.165,0,0,1,5.41,9.01L28.142,26.25A1.158,1.158,0,0,0,30,25.328V25.4A1.749,1.749,0,0,1,29.01,26.97Z" fill="#007acc"/>
    <path d="M23.244,29.747a1.745,1.745,0,0,1-1.989-.338A1.025,1.025,0,0,0,23,28.684V3.316a1.024,1.024,0,0,0-1.749-.724,1.744,1.744,0,0,1,1.989-.339l5.765,2.772A1.748,1.748,0,0,1,30,6.6V25.4a1.748,1.748,0,0,1-.991,1.576Z" fill="#1f9cf0"/>
  </g>
  <text x="912" y="882" fill="#E5E5E5" font-size="20" font-family="SF Mono, Menlo, Monaco, Consolas, monospace">VS Code</text>


  <!-- ====================== -->
  <!-- Row 5 -->
  <!-- ====================== -->
  <g transform="translate(40 914) scale(0.78)">
    <defs>
      <linearGradient id="python_gradient_0" x1="12.4809" y1="2" x2="12.4809" y2="22.7407" gradientUnits="userSpaceOnUse">
        <stop stop-color="#327EBD"/>
        <stop offset="1" stop-color="#1565A7"/>
      </linearGradient>

      <linearGradient id="python_gradient_1" x1="19.519" y1="9.25928" x2="19.519" y2="30" gradientUnits="userSpaceOnUse">
        <stop stop-color="#FFDA4B"/>
        <stop offset="1" stop-color="#F9C600"/>
      </linearGradient>
    </defs>

    <path fill-rule="evenodd" clip-rule="evenodd"
      d="M13.0164 2C10.8193 2 9.03825 3.72453 9.03825 5.85185V8.51852H15.9235V9.25926H5.97814C3.78107 9.25926 2 10.9838 2 13.1111L2 18.8889C2 21.0162 3.78107 22.7407 5.97814 22.7407H8.27322V19.4815C8.27322 17.3542 10.0543 15.6296 12.2514 15.6296H19.5956C21.4547 15.6296 22.9617 14.1704 22.9617 12.3704V5.85185C22.9617 3.72453 21.1807 2 18.9836 2H13.0164ZM12.0984 6.74074C12.8589 6.74074 13.4754 6.14378 13.4754 5.40741C13.4754 4.67103 12.8589 4.07407 12.0984 4.07407C11.3378 4.07407 10.7213 4.67103 10.7213 5.40741C10.7213 6.14378 11.3378 6.74074 12.0984 6.74074Z"
      fill="url(#python_gradient_0)"/>

    <path fill-rule="evenodd" clip-rule="evenodd"
      d="M18.9834 30C21.1805 30 22.9616 28.2755 22.9616 26.1482V23.4815L16.0763 23.4815L16.0763 22.7408L26.0217 22.7408C28.2188 22.7408 29.9998 21.0162 29.9998 18.8889V13.1111C29.9998 10.9838 28.2188 9.25928 26.0217 9.25928L23.7266 9.25928V12.5185C23.7266 14.6459 21.9455 16.3704 19.7485 16.3704L12.4042 16.3704C10.5451 16.3704 9.03809 17.8296 9.03809 19.6296L9.03809 26.1482C9.03809 28.2755 10.8192 30 13.0162 30H18.9834ZM19.9015 25.2593C19.1409 25.2593 18.5244 25.8562 18.5244 26.5926C18.5244 27.329 19.1409 27.9259 19.9015 27.9259C20.662 27.9259 21.2785 27.329 21.2785 26.5926C21.2785 25.8562 20.662 25.2593 19.9015 25.2593Z"
      fill="url(#python_gradient_1)"/>
  </g>
  <text x="72" y="932" fill="#E5E5E5" font-size="20"
        font-family="SF Mono, Menlo, Monaco, Consolas, monospace">Python</text>

  <g transform="translate(320 914) scale(0.78)">
    <g clip-path="url(#clip0_87_8030)">
      <path d="M22.4456 5.02881L31.7714 12.846L28.4342 19.6574L22.7656 18.1031H17.9199L22.4456 5.02881Z" fill="url(#paint0_linear_87_8030)"/>
      <path d="M13.0286 10.1029L11.2 19.6571L11.0171 22.9486L6.49143 24.9143L0 25.6L1.96571 4.89143L13.6686 0L20.8914 4.75429L13.0286 10.1029Z" fill="url(#paint1_linear_87_8030)"/>
      <path d="M13.0286 10.103L13.8971 28.5716L10.9714 32.0002L0 25.6002L9.00571 12.1602L13.0286 10.103Z" fill="url(#paint2_linear_87_8030)"/>
      <path d="M25.0969 8.73143H13.9883L23.8169 0L25.0969 8.73143Z" fill="url(#paint3_linear_87_8030)"/>
      <path d="M32.0001 28.6171L22.2172 31.9543L9.23438 28.2971L13.0287 10.1029L14.5372 8.73143L22.4458 8L21.7144 15.9543L28.0229 13.5314L32.0001 28.6171Z" fill="url(#paint4_linear_87_8030)"/>
      <path d="M6.12598 6.12549H25.8745V25.8741H6.12598V6.12549Z" fill="#000000"/>
      <path d="M8 22.1714H15.4057V23.4057H8V22.1714Z" fill="white"/>
      <path d="M7.95508 8.73145H11.2465C13.2122 8.73145 14.4008 9.8743 14.4008 11.5657C14.4008 13.44 12.9379 14.4914 11.1094 14.4914H9.73794V16.9143H7.95508L7.95508 8.73145ZM11.1551 12.8457C12.0694 12.8457 12.5722 12.2514 12.5722 11.5657C12.5722 10.7429 12.0236 10.3314 11.1094 10.3314H9.73794V12.8457H11.1551Z" fill="white"/>
      <path d="M15.1318 12.8457C15.1318 10.5142 16.869 8.59424 19.3833 8.59424C20.9376 8.59424 21.8518 9.0971 22.629 9.87424L21.4861 11.2C20.8461 10.6057 20.2061 10.2857 19.3833 10.2857C18.0118 10.2857 17.0061 11.4285 17.0061 12.8457C17.0061 14.2628 17.9661 15.36 19.3833 15.36C20.2976 15.36 20.8918 14.9942 21.5318 14.4L22.6747 15.5428C21.8518 16.4571 20.8918 17.0057 19.3376 17.0057C16.9147 17.0514 15.1318 15.1771 15.1318 12.8457Z" fill="white"/>
      </g>
      <defs>
      <linearGradient id="paint0_linear_87_8030" x1="11.4276" y1="12.3641" x2="30.4712" y2="12.3641" gradientUnits="userSpaceOnUse">
      <stop stop-color="#21D789"/>
      <stop offset="1" stop-color="#07C3F2"/>
      </linearGradient>
      <linearGradient id="paint1_linear_87_8030" x1="-11.227" y1="27.0085" x2="27.9863" y2="-1.93875" gradientUnits="userSpaceOnUse">
      <stop offset="0.011" stop-color="#FCF84A"/>
      <stop offset="0.112" stop-color="#A7EB62"/>
      <stop offset="0.206" stop-color="#5FE077"/>
      <stop offset="0.273" stop-color="#32DA84"/>
      <stop offset="0.306" stop-color="#21D789"/>
      <stop offset="0.577" stop-color="#21D789"/>
      <stop offset="0.597" stop-color="#21D789"/>
      <stop offset="0.686" stop-color="#20D68C"/>
      <stop offset="0.763" stop-color="#1ED497"/>
      <stop offset="0.835" stop-color="#19D1A9"/>
      <stop offset="0.904" stop-color="#13CCC2"/>
      <stop offset="0.971" stop-color="#0BC6E1"/>
      <stop offset="1" stop-color="#07C3F2"/>
      </linearGradient>
      <linearGradient id="paint2_linear_87_8030" x1="4.26514" y1="35.4991" x2="10.8055" y2="14.9762" gradientUnits="userSpaceOnUse">
      <stop stop-color="#21D789"/>
      <stop offset="0.164" stop-color="#24D788"/>
      <stop offset="0.305" stop-color="#2FD886"/>
      <stop offset="0.437" stop-color="#41DA82"/>
      <stop offset="0.564" stop-color="#5ADC7D"/>
      <stop offset="0.688" stop-color="#7AE077"/>
      <stop offset="0.809" stop-color="#A1E36E"/>
      <stop offset="0.925" stop-color="#CFE865"/>
      <stop offset="1" stop-color="#F1EB5E"/>
      </linearGradient>
      <linearGradient id="paint3_linear_87_8030" x1="12.9254" y1="17.6562" x2="27.1581" y2="-1.47932" gradientUnits="userSpaceOnUse">
      <stop stop-color="#21D789"/>
      <stop offset="0.061" stop-color="#24D788"/>
      <stop offset="0.113" stop-color="#2FD886"/>
      <stop offset="0.162" stop-color="#41DA82"/>
      <stop offset="0.209" stop-color="#5ADD7D"/>
      <stop offset="0.255" stop-color="#79E077"/>
      <stop offset="0.258" stop-color="#7CE076"/>
      <stop offset="0.499" stop-color="#8CE173"/>
      <stop offset="0.925" stop-color="#B2E56B"/>
      </linearGradient>
      <linearGradient id="paint4_linear_87_8030" x1="34.6922" y1="20.0914" x2="6.01518" y2="19.8258" gradientUnits="userSpaceOnUse">
      <stop offset="0.387" stop-color="#FCF84A"/>
      <stop offset="0.536" stop-color="#ECF451"/>
      <stop offset="0.826" stop-color="#C2E964"/>
      <stop offset="0.925" stop-color="#B2E56B"/>
      </linearGradient>
      <clipPath id="clip0_87_8030">
      <rect width="32" height="32" fill="white"/>
      </clipPath>
      </defs>
  </g>
  <text x="352" y="932" fill="#E5E5E5" font-size="20"
        font-family="SF Mono, Menlo, Monaco, Consolas, monospace">PyCharm</text>
</svg>